<svg width="44" height="42" viewBox="0 0 44 42" fill="none" xmlns="http://www.w3.org/2000/svg">
<path d="M1 0.5C0.723858 0.5 0.5 0.723858 0.5 1C0.5 1.27614 0.723858 1.5 1 1.5V0.5ZM7.67692 1L8.17153 0.926726L8.10831 0.5H7.67692V1ZM8.53846 6.81538L8.04386 6.88866L8.04415 6.89061L8.53846 6.81538ZM11.2308 24.2615L11.7261 24.1927L11.7249 24.1853L11.2308 24.2615ZM15.9692 28.7846L15.8932 29.2788L15.931 29.2846H15.9692V28.7846ZM38.5846 29.2846C38.8608 29.2846 39.0846 29.0608 39.0846 28.7846C39.0846 28.5085 38.8608 28.2846 38.5846 28.2846V29.2846ZM10.8 21.677L10.3057 21.7522C10.3429 21.9965 10.5529 22.177 10.8 22.177V21.677ZM40.8462 18.5539L40.3544 18.4636C40.3499 18.4877 40.3473 18.5121 40.3465 18.5366L40.8462 18.5539ZM43 6.81541L43.4918 6.90565C43.5186 6.75968 43.4791 6.60936 43.3841 6.49535C43.2891 6.38133 43.1484 6.31541 43 6.31541V6.81541ZM1 1.5H7.67692V0.5H1V1.5ZM7.18232 1.07327L8.04386 6.88866L9.03306 6.74211L8.17153 0.926726L7.18232 1.07327ZM8.04431 6.89164L10.7366 24.3378L11.7249 24.1853L9.03261 6.73913L8.04431 6.89164ZM11.2308 24.2615C10.7355 24.3303 10.7356 24.3306 10.7356 24.3309C10.7356 24.331 10.7357 24.3313 10.7357 24.3315C10.7358 24.332 10.7358 24.3325 10.7359 24.3331C10.7361 24.3342 10.7363 24.3356 10.7365 24.3372C10.737 24.3405 10.7376 24.3446 10.7384 24.3497C10.74 24.3599 10.7422 24.3737 10.7452 24.391C10.7512 24.4254 10.7603 24.4737 10.7732 24.5339C10.7989 24.6542 10.84 24.823 10.9031 25.0258C11.0288 25.4305 11.2437 25.977 11.6016 26.5467C12.3241 27.6969 13.6252 28.9299 15.8932 29.2788L16.0453 28.2904C14.1132 27.9932 13.0451 26.9646 12.4484 26.0148C12.1467 25.5346 11.9644 25.0715 11.858 24.729C11.8049 24.5583 11.7712 24.4191 11.7511 24.3249C11.741 24.2778 11.7344 24.2421 11.7304 24.2195C11.7285 24.2082 11.7272 24.2002 11.7265 24.1956C11.7261 24.1934 11.7259 24.192 11.7258 24.1915C11.7258 24.1912 11.7258 24.1912 11.7258 24.1914C11.7258 24.1915 11.7259 24.1917 11.7259 24.1919C11.7259 24.192 11.7259 24.1922 11.726 24.1923C11.726 24.1925 11.726 24.1928 11.2308 24.2615ZM15.9692 29.2846C15.9779 29.2846 15.9865 29.2846 15.9953 29.2846C16.004 29.2846 16.0128 29.2846 16.0216 29.2846C16.0304 29.2846 16.0393 29.2846 16.0483 29.2846C16.0572 29.2846 16.0662 29.2846 16.0752 29.2846C16.0843 29.2846 16.0934 29.2846 16.1025 29.2846C16.1116 29.2846 16.1208 29.2846 16.1301 29.2846C16.1393 29.2846 16.1486 29.2846 16.158 29.2846C16.1673 29.2846 16.1767 29.2846 16.1862 29.2846C16.1956 29.2846 16.2051 29.2846 16.2147 29.2846C16.2242 29.2846 16.2338 29.2846 16.2435 29.2846C16.2531 29.2846 16.2628 29.2846 16.2726 29.2846C16.2823 29.2846 16.2921 29.2846 16.302 29.2846C16.3118 29.2846 16.3217 29.2846 16.3317 29.2846C16.3416 29.2846 16.3516 29.2846 16.3617 29.2846C16.3717 29.2846 16.3818 29.2846 16.392 29.2846C16.4021 29.2846 16.4123 29.2846 16.4226 29.2846C16.4328 29.2846 16.4431 29.2846 16.4535 29.2846C16.4638 29.2846 16.4742 29.2846 16.4846 29.2846C16.4951 29.2846 16.5056 29.2846 16.5161 29.2846C16.5266 29.2846 16.5372 29.2846 16.5479 29.2846C16.5585 29.2846 16.5692 29.2846 16.5799 29.2846C16.5906 29.2846 16.6014 29.2846 16.6122 29.2846C16.623 29.2846 16.6339 29.2846 16.6448 29.2846C16.6557 29.2846 16.6667 29.2846 16.6777 29.2846C16.6887 29.2846 16.6998 29.2846 16.7109 29.2846C16.722 29.2846 16.7331 29.2846 16.7443 29.2846C16.7555 29.2846 16.7668 29.2846 16.7781 29.2846C16.7894 29.2846 16.8007 29.2846 16.8121 29.2846C16.8235 29.2846 16.8349 29.2846 16.8464 29.2846C16.8578 29.2846 16.8694 29.2846 16.8809 29.2846C16.8925 29.2846 16.9041 29.2846 16.9157 29.2846C16.9274 29.2846 16.9391 29.2846 16.9508 29.2846C16.9626 29.2846 16.9744 29.2846 16.9862 29.2846C16.998 29.2846 17.0099 29.2846 17.0219 29.2846C17.0338 29.2846 17.0457 29.2846 17.0578 29.2846C17.0698 29.2846 17.0818 29.2846 17.0939 29.2846C17.106 29.2846 17.1182 29.2846 17.1304 29.2846C17.1426 29.2846 17.1548 29.2846 17.1671 29.2846C17.1793 29.2846 17.1917 29.2846 17.204 29.2846C17.2164 29.2846 17.2288 29.2846 17.2412 29.2846C17.2537 29.2846 17.2662 29.2846 17.2787 29.2846C17.2913 29.2846 17.3038 29.2846 17.3164 29.2846C17.3291 29.2846 17.3417 29.2846 17.3544 29.2846C17.3671 29.2846 17.3799 29.2846 17.3927 29.2846C17.4055 29.2846 17.4183 29.2846 17.4312 29.2846C17.444 29.2846 17.457 29.2846 17.4699 29.2846C17.4829 29.2846 17.4959 29.2846 17.5089 29.2846C17.522 29.2846 17.535 29.2846 17.5482 29.2846C17.5613 29.2846 17.5745 29.2846 17.5877 29.2846C17.6009 29.2846 17.6141 29.2846 17.6274 29.2846C17.6407 29.2846 17.654 29.2846 17.6674 29.2846C17.6807 29.2846 17.6942 29.2846 17.7076 29.2846C17.721 29.2846 17.7345 29.2846 17.7481 29.2846C17.7616 29.2846 17.7752 29.2846 17.7888 29.2846C17.8024 29.2846 17.816 29.2846 17.8297 29.2846C17.8434 29.2846 17.8571 29.2846 17.8709 29.2846C17.8847 29.2846 17.8985 29.2846 17.9123 29.2846C17.9261 29.2846 17.94 29.2846 17.954 29.2846C17.9679 29.2846 17.9818 29.2846 17.9958 29.2846C18.0098 29.2846 18.0239 29.2846 18.0379 29.2846C18.052 29.2846 18.0661 29.2846 18.0803 29.2846C18.0944 29.2846 18.1086 29.2846 18.1229 29.2846C18.1371 29.2846 18.1514 29.2846 18.1657 29.2846C18.18 29.2846 18.1943 29.2846 18.2087 29.2846C18.2231 29.2846 18.2375 29.2846 18.2519 29.2846C18.2664 29.2846 18.2809 29.2846 18.2954 29.2846C18.3099 29.2846 18.3245 29.2846 18.3391 29.2846C18.3537 29.2846 18.3683 29.2846 18.383 29.2846C18.3977 29.2846 18.4124 29.2846 18.4271 29.2846C18.4419 29.2846 18.4567 29.2846 18.4715 29.2846C18.4863 29.2846 18.5011 29.2846 18.516 29.2846C18.5309 29.2846 18.5459 29.2846 18.5608 29.2846C18.5758 29.2846 18.5908 29.2846 18.6058 29.2846C18.6208 29.2846 18.6359 29.2846 18.651 29.2846C18.6661 29.2846 18.6812 29.2846 18.6964 29.2846C18.7116 29.2846 18.7268 29.2846 18.742 29.2846C18.7573 29.2846 18.7725 29.2846 18.7878 29.2846C18.8032 29.2846 18.8185 29.2846 18.8339 29.2846C18.8493 29.2846 18.8647 29.2846 18.8801 29.2846C18.8956 29.2846 18.911 29.2846 18.9265 29.2846C18.9421 29.2846 18.9576 29.2846 18.9732 29.2846C18.9888 29.2846 19.0044 29.2846 19.02 29.2846C19.0357 29.2846 19.0513 29.2846 19.0671 29.2846C19.0828 29.2846 19.0985 29.2846 19.1143 29.2846C19.1301 29.2846 19.1459 29.2846 19.1617 29.2846C19.1776 29.2846 19.1934 29.2846 19.2093 29.2846C19.2252 29.2846 19.2412 29.2846 19.2571 29.2846C19.2731 29.2846 19.2891 29.2846 19.3052 29.2846C19.3212 29.2846 19.3372 29.2846 19.3533 29.2846C19.3694 29.2846 19.3856 29.2846 19.4017 29.2846C19.4179 29.2846 19.4341 29.2846 19.4503 29.2846C19.4665 29.2846 19.4828 29.2846 19.4991 29.2846C19.5153 29.2846 19.5316 29.2846 19.548 29.2846C19.5643 29.2846 19.5807 29.2846 19.5971 29.2846C19.6135 29.2846 19.6299 29.2846 19.6464 29.2846C19.6629 29.2846 19.6794 29.2846 19.6959 29.2846C19.7124 29.2846 19.729 29.2846 19.7456 29.2846C19.7621 29.2846 19.7787 29.2846 19.7954 29.2846C19.812 29.2846 19.8287 29.2846 19.8454 29.2846C19.8621 29.2846 19.8788 29.2846 19.8956 29.2846C19.9123 29.2846 19.9291 29.2846 19.9459 29.2846C19.9628 29.2846 19.9796 29.2846 19.9965 29.2846C20.0133 29.2846 20.0303 29.2846 20.0472 29.2846C20.0641 29.2846 20.0811 29.2846 20.098 29.2846C20.115 29.2846 20.132 29.2846 20.1491 29.2846C20.1661 29.2846 20.1832 29.2846 20.2003 29.2846C20.2174 29.2846 20.2345 29.2846 20.2516 29.2846C20.2688 29.2846 20.286 29.2846 20.3032 29.2846C20.3204 29.2846 20.3376 29.2846 20.3549 29.2846C20.3721 29.2846 20.3894 29.2846 20.4067 29.2846C20.424 29.2846 20.4413 29.2846 20.4587 29.2846C20.4761 29.2846 20.4935 29.2846 20.5109 29.2846C20.5283 29.2846 20.5457 29.2846 20.5632 29.2846C20.5807 29.2846 20.5981 29.2846 20.6157 29.2846C20.6332 29.2846 20.6507 29.2846 20.6683 29.2846C20.6859 29.2846 20.7034 29.2846 20.7211 29.2846C20.7387 29.2846 20.7563 29.2846 20.774 29.2846C20.7917 29.2846 20.8093 29.2846 20.8271 29.2846C20.8448 29.2846 20.8625 29.2846 20.8803 29.2846C20.898 29.2846 20.9158 29.2846 20.9336 29.2846C20.9515 29.2846 20.9693 29.2846 20.9872 29.2846C21.005 29.2846 21.0229 29.2846 21.0408 29.2846C21.0587 29.2846 21.0766 29.2846 21.0946 29.2846C21.1126 29.2846 21.1305 29.2846 21.1485 29.2846C21.1665 29.2846 21.1846 29.2846 21.2026 29.2846C21.2206 29.2846 21.2387 29.2846 21.2568 29.2846C21.2749 29.2846 21.293 29.2846 21.3111 29.2846C21.3293 29.2846 21.3474 29.2846 21.3656 29.2846C21.3838 29.2846 21.402 29.2846 21.4202 29.2846C21.4385 29.2846 21.4567 29.2846 21.475 29.2846C21.4932 29.2846 21.5115 29.2846 21.5298 29.2846C21.5482 29.2846 21.5665 29.2846 21.5848 29.2846C21.6032 29.2846 21.6216 29.2846 21.64 29.2846C21.6584 29.2846 21.6768 29.2846 21.6952 29.2846C21.7137 29.2846 21.7321 29.2846 21.7506 29.2846C21.7691 29.2846 21.7876 29.2846 21.8061 29.2846C21.8246 29.2846 21.8431 29.2846 21.8617 29.2846C21.8803 29.2846 21.8988 29.2846 21.9174 29.2846C21.936 29.2846 21.9547 29.2846 21.9733 29.2846C21.9919 29.2846 22.0106 29.2846 22.0293 29.2846C22.0479 29.2846 22.0666 29.2846 22.0854 29.2846C22.1041 29.2846 22.1228 29.2846 22.1416 29.2846C22.1603 29.2846 22.1791 29.2846 22.1979 29.2846C22.2167 29.2846 22.2355 29.2846 22.2543 29.2846C22.2731 29.2846 22.292 29.2846 22.3108 29.2846C22.3297 29.2846 22.3486 29.2846 22.3675 29.2846C22.3864 29.2846 22.4053 29.2846 22.4242 29.2846C22.4432 29.2846 22.4621 29.2846 22.4811 29.2846C22.5 29.2846 22.519 29.2846 22.538 29.2846C22.557 29.2846 22.5761 29.2846 22.5951 29.2846C22.6141 29.2846 22.6332 29.2846 22.6523 29.2846C22.6713 29.2846 22.6904 29.2846 22.7095 29.2846C22.7286 29.2846 22.7477 29.2846 22.7669 29.2846C22.786 29.2846 22.8052 29.2846 22.8243 29.2846C22.8435 29.2846 22.8627 29.2846 22.8819 29.2846C22.9011 29.2846 22.9203 29.2846 22.9395 29.2846C22.9588 29.2846 22.978 29.2846 22.9973 29.2846C23.0165 29.2846 23.0358 29.2846 23.0551 29.2846C23.0744 29.2846 23.0937 29.2846 23.113 29.2846C23.1323 29.2846 23.1517 29.2846 23.171 29.2846C23.1904 29.2846 23.2097 29.2846 23.2291 29.2846C23.2485 29.2846 23.2679 29.2846 23.2873 29.2846C23.3067 29.2846 23.3261 29.2846 23.3456 29.2846C23.365 29.2846 23.3844 29.2846 23.4039 29.2846C23.4234 29.2846 23.4428 29.2846 23.4623 29.2846C23.4818 29.2846 23.5013 29.2846 23.5208 29.2846C23.5403 29.2846 23.5599 29.2846 23.5794 29.2846C23.599 29.2846 23.6185 29.2846 23.6381 29.2846C23.6576 29.2846 23.6772 29.2846 23.6968 29.2846C23.7164 29.2846 23.736 29.2846 23.7556 29.2846C23.7752 29.2846 23.7949 29.2846 23.8145 29.2846C23.8341 29.2846 23.8538 29.2846 23.8735 29.2846C23.8931 29.2846 23.9128 29.2846 23.9325 29.2846C23.9522 29.2846 23.9719 29.2846 23.9916 29.2846C24.0113 29.2846 24.031 29.2846 24.0507 29.2846C24.0705 29.2846 24.0902 29.2846 24.11 29.2846C24.1297 29.2846 24.1495 29.2846 24.1692 29.2846C24.189 29.2846 24.2088 29.2846 24.2286 29.2846C24.2484 29.2846 24.2682 29.2846 24.288 29.2846C24.3078 29.2846 24.3276 29.2846 24.3475 29.2846C24.3673 29.2846 24.3871 29.2846 24.407 29.2846C24.4269 29.2846 24.4467 29.2846 24.4666 29.2846C24.4865 29.2846 24.5063 29.2846 24.5262 29.2846C24.5461 29.2846 24.566 29.2846 24.5859 29.2846C24.6058 29.2846 24.6257 29.2846 24.6457 29.2846C24.6656 29.2846 24.6855 29.2846 24.7055 29.2846C24.7254 29.2846 24.7453 29.2846 24.7653 29.2846C24.7853 29.2846 24.8052 29.2846 24.8252 29.2846C24.8452 29.2846 24.8652 29.2846 24.8851 29.2846C24.9051 29.2846 24.9251 29.2846 24.9451 29.2846C24.9651 29.2846 24.9851 29.2846 25.0052 29.2846C25.0252 29.2846 25.0452 29.2846 25.0652 29.2846C25.0853 29.2846 25.1053 29.2846 25.1253 29.2846C25.1454 29.2846 25.1654 29.2846 25.1855 29.2846C25.2056 29.2846 25.2256 29.2846 25.2457 29.2846C25.2658 29.2846 25.2858 29.2846 25.3059 29.2846C25.326 29.2846 25.3461 29.2846 25.3662 29.2846C25.3863 29.2846 25.4064 29.2846 25.4265 29.2846C25.4466 29.2846 25.4667 29.2846 25.4868 29.2846C25.5069 29.2846 25.527 29.2846 25.5472 29.2846C25.5673 29.2846 25.5874 29.2846 25.6076 29.2846C25.6277 29.2846 25.6478 29.2846 25.668 29.2846C25.6881 29.2846 25.7083 29.2846 25.7284 29.2846C25.7486 29.2846 25.7687 29.2846 25.7889 29.2846C25.8091 29.2846 25.8292 29.2846 25.8494 29.2846C25.8696 29.2846 25.8897 29.2846 25.9099 29.2846C25.9301 29.2846 25.9503 29.2846 25.9704 29.2846C25.9906 29.2846 26.0108 29.2846 26.031 29.2846C26.0512 29.2846 26.0714 29.2846 26.0916 29.2846C26.1118 29.2846 26.132 29.2846 26.1522 29.2846C26.1724 29.2846 26.1926 29.2846 26.2128 29.2846C26.233 29.2846 26.2532 29.2846 26.2734 29.2846C26.2936 29.2846 26.3138 29.2846 26.334 29.2846C26.3542 29.2846 26.3745 29.2846 26.3947 29.2846C26.4149 29.2846 26.4351 29.2846 26.4553 29.2846C26.4755 29.2846 26.4958 29.2846 26.516 29.2846C26.5362 29.2846 26.5564 29.2846 26.5767 29.2846C26.5969 29.2846 26.6171 29.2846 26.6373 29.2846C26.6576 29.2846 26.6778 29.2846 26.698 29.2846C26.7182 29.2846 26.7385 29.2846 26.7587 29.2846C26.7789 29.2846 26.7991 29.2846 26.8194 29.2846C26.8396 29.2846 26.8598 29.2846 26.8801 29.2846C26.9003 29.2846 26.9205 29.2846 26.9407 29.2846C26.961 29.2846 26.9812 29.2846 27.0014 29.2846C27.0216 29.2846 27.0419 29.2846 27.0621 29.2846C27.0823 29.2846 27.1025 29.2846 27.1227 29.2846C27.143 29.2846 27.1632 29.2846 27.1834 29.2846C27.2036 29.2846 27.2238 29.2846 27.244 29.2846C27.2643 29.2846 27.2845 29.2846 27.3047 29.2846C27.3249 29.2846 27.3451 29.2846 27.3653 29.2846C27.3855 29.2846 27.4057 29.2846 27.4259 29.2846C27.4461 29.2846 27.4663 29.2846 27.4865 29.2846C27.5067 29.2846 27.5269 29.2846 27.5471 29.2846C27.5673 29.2846 27.5875 29.2846 27.6077 29.2846C27.6278 29.2846 27.648 29.2846 27.6682 29.2846C27.6884 29.2846 27.7086 29.2846 27.7287 29.2846C27.7489 29.2846 27.7691 29.2846 27.7892 29.2846C27.8094 29.2846 27.8296 29.2846 27.8497 29.2846C27.8699 29.2846 27.89 29.2846 27.9102 29.2846C27.9303 29.2846 27.9505 29.2846 27.9706 29.2846C27.9907 29.2846 28.0109 29.2846 28.031 29.2846C28.0511 29.2846 28.0712 29.2846 28.0914 29.2846C28.1115 29.2846 28.1316 29.2846 28.1517 29.2846C28.1718 29.2846 28.1919 29.2846 28.212 29.2846C28.2321 29.2846 28.2522 29.2846 28.2723 29.2846C28.2924 29.2846 28.3124 29.2846 28.3325 29.2846C28.3526 29.2846 28.3727 29.2846 28.3927 29.2846C28.4128 29.2846 28.4328 29.2846 28.4529 29.2846C28.4729 29.2846 28.493 29.2846 28.513 29.2846C28.5331 29.2846 28.5531 29.2846 28.5731 29.2846C28.5931 29.2846 28.6131 29.2846 28.6331 29.2846C28.6532 29.2846 28.6732 29.2846 28.6931 29.2846C28.7131 29.2846 28.7331 29.2846 28.7531 29.2846C28.7731 29.2846 28.7931 29.2846 28.813 29.2846C28.833 29.2846 28.8529 29.2846 28.8729 29.2846C28.8928 29.2846 28.9128 29.2846 28.9327 29.2846C28.9526 29.2846 28.9725 29.2846 28.9925 29.2846C29.0124 29.2846 29.0323 29.2846 29.0522 29.2846C29.0721 29.2846 29.0919 29.2846 29.1118 29.2846C29.1317 29.2846 29.1516 29.2846 29.1714 29.2846C29.1913 29.2846 29.2111 29.2846 29.231 29.2846C29.2508 29.2846 29.2706 29.2846 29.2905 29.2846C29.3103 29.2846 29.3301 29.2846 29.3499 29.2846C29.3697 29.2846 29.3895 29.2846 29.4093 29.2846C29.429 29.2846 29.4488 29.2846 29.4686 29.2846C29.4883 29.2846 29.5081 29.2846 29.5278 29.2846C29.5475 29.2846 29.5673 29.2846 29.587 29.2846C29.6067 29.2846 29.6264 29.2846 29.6461 29.2846C29.6658 29.2846 29.6855 29.2846 29.7051 29.2846C29.7248 29.2846 29.7445 29.2846 29.7641 29.2846C29.7838 29.2846 29.8034 29.2846 29.823 29.2846C29.8426 29.2846 29.8623 29.2846 29.8819 29.2846C29.9015 29.2846 29.921 29.2846 29.9406 29.2846C29.9602 29.2846 29.9798 29.2846 29.9993 29.2846C30.0189 29.2846 30.0384 29.2846 30.0579 29.2846C30.0774 29.2846 30.0969 29.2846 30.1164 29.2846C30.1359 29.2846 30.1554 29.2846 30.1749 29.2846C30.1944 29.2846 30.2138 29.2846 30.2333 29.2846C30.2527 29.2846 30.2721 29.2846 30.2916 29.2846C30.311 29.2846 30.3304 29.2846 30.3498 29.2846C30.3691 29.2846 30.3885 29.2846 30.4079 29.2846C30.4272 29.2846 30.4466 29.2846 30.4659 29.2846C30.4852 29.2846 30.5046 29.2846 30.5239 29.2846C30.5432 29.2846 30.5625 29.2846 30.5817 29.2846C30.601 29.2846 30.6202 29.2846 30.6395 29.2846C30.6587 29.2846 30.678 29.2846 30.6972 29.2846C30.7164 29.2846 30.7356 29.2846 30.7547 29.2846C30.7739 29.2846 30.7931 29.2846 30.8122 29.2846C30.8314 29.2846 30.8505 29.2846 30.8696 29.2846C30.8887 29.2846 30.9078 29.2846 30.9269 29.2846C30.946 29.2846 30.9651 29.2846 30.9841 29.2846C31.0032 29.2846 31.0222 29.2846 31.0412 29.2846C31.0602 29.2846 31.0792 29.2846 31.0982 29.2846C31.1172 29.2846 31.1361 29.2846 31.1551 29.2846C31.174 29.2846 31.193 29.2846 31.2119 29.2846C31.2308 29.2846 31.2497 29.2846 31.2685 29.2846C31.2874 29.2846 31.3063 29.2846 31.3251 29.2846C31.344 29.2846 31.3628 29.2846 31.3816 29.2846C31.4004 29.2846 31.4192 29.2846 31.4379 29.2846C31.4567 29.2846 31.4754 29.2846 31.4942 29.2846C31.5129 29.2846 31.5316 29.2846 31.5503 29.2846C31.569 29.2846 31.5876 29.2846 31.6063 29.2846C31.6249 29.2846 31.6436 29.2846 31.6622 29.2846C31.6808 29.2846 31.6994 29.2846 31.718 29.2846C31.7365 29.2846 31.7551 29.2846 31.7736 29.2846C31.7921 29.2846 31.8107 29.2846 31.8291 29.2846C31.8476 29.2846 31.8661 29.2846 31.8846 29.2846C31.903 29.2846 31.9214 29.2846 31.9399 29.2846C31.9583 29.2846 31.9766 29.2846 31.995 29.2846C32.0134 29.2846 32.0317 29.2846 32.0501 29.2846C32.0684 29.2846 32.0867 29.2846 32.105 29.2846C32.1232 29.2846 32.1415 29.2846 32.1597 29.2846C32.178 29.2846 32.1962 29.2846 32.2144 29.2846C32.2326 29.2846 32.2508 29.2846 32.2689 29.2846C32.2871 29.2846 32.3052 29.2846 32.3233 29.2846C32.3414 29.2846 32.3595 29.2846 32.3776 29.2846C32.3956 29.2846 32.4137 29.2846 32.4317 29.2846C32.4497 29.2846 32.4677 29.2846 32.4856 29.2846C32.5036 29.2846 32.5216 29.2846 32.5395 29.2846C32.5574 29.2846 32.5753 29.2846 32.5932 29.2846C32.6111 29.2846 32.6289 29.2846 32.6467 29.2846C32.6646 29.2846 32.6824 29.2846 32.7001 29.2846C32.7179 29.2846 32.7357 29.2846 32.7534 29.2846C32.7711 29.2846 32.7888 29.2846 32.8065 29.2846C32.8242 29.2846 32.8419 29.2846 32.8595 29.2846C32.8771 29.2846 32.8947 29.2846 32.9123 29.2846C32.9299 29.2846 32.9475 29.2846 32.965 29.2846C32.9825 29.2846 33 29.2846 33.0175 29.2846C33.035 29.2846 33.0525 29.2846 33.0699 29.2846C33.0873 29.2846 33.1047 29.2846 33.1221 29.2846C33.1395 29.2846 33.1568 29.2846 33.1742 29.2846C33.1915 29.2846 33.2088 29.2846 33.2261 29.2846C33.2433 29.2846 33.2606 29.2846 33.2778 29.2846C33.295 29.2846 33.3122 29.2846 33.3294 29.2846C33.3465 29.2846 33.3637 29.2846 33.3808 29.2846C33.3979 29.2846 33.415 29.2846 33.432 29.2846C33.4491 29.2846 33.4661 29.2846 33.4831 29.2846C33.5001 29.2846 33.5171 29.2846 33.534 29.2846C33.551 29.2846 33.5679 29.2846 33.5848 29.2846C33.6017 29.2846 33.6185 29.2846 33.6354 29.2846C33.6522 29.2846 33.669 29.2846 33.6858 29.2846C33.7026 29.2846 33.7193 29.2846 33.736 29.2846C33.7528 29.2846 33.7694 29.2846 33.7861 29.2846C33.8028 29.2846 33.8194 29.2846 33.836 29.2846C33.8526 29.2846 33.8692 29.2846 33.8857 29.2846C33.9023 29.2846 33.9188 29.2846 33.9353 29.2846C33.9517 29.2846 33.9682 29.2846 33.9846 29.2846C34.001 29.2846 34.0174 29.2846 34.0338 29.2846C34.0502 29.2846 34.0665 29.2846 34.0828 29.2846C34.0991 29.2846 34.1154 29.2846 34.1316 29.2846C34.1478 29.2846 34.1641 29.2846 34.1802 29.2846C34.1964 29.2846 34.2126 29.2846 34.2287 29.2846C34.2448 29.2846 34.2609 29.2846 34.2769 29.2846C34.293 29.2846 34.309 29.2846 34.325 29.2846C34.341 29.2846 34.3569 29.2846 34.3729 29.2846C34.3888 29.2846 34.4047 29.2846 34.4206 29.2846C34.4364 29.2846 34.4522 29.2846 34.468 29.2846C34.4838 29.2846 34.4996 29.2846 34.5153 29.2846C34.5311 29.2846 34.5468 29.2846 34.5624 29.2846C34.5781 29.2846 34.5937 29.2846 34.6093 29.2846C34.6249 29.2846 34.6405 29.2846 34.656 29.2846C34.6716 29.2846 34.6871 29.2846 34.7025 29.2846C34.718 29.2846 34.7334 29.2846 34.7488 29.2846C34.7642 29.2846 34.7796 29.2846 34.7949 29.2846C34.8103 29.2846 34.8256 29.2846 34.8408 29.2846C34.8561 29.2846 34.8713 29.2846 34.8865 29.2846C34.9017 29.2846 34.9169 29.2846 34.932 29.2846C34.9471 29.2846 34.9622 29.2846 34.9772 29.2846C34.9923 29.2846 35.0073 29.2846 35.0223 29.2846C35.0373 29.2846 35.0522 29.2846 35.0671 29.2846C35.0821 29.2846 35.0969 29.2846 35.1118 29.2846C35.1266 29.2846 35.1414 29.2846 35.1562 29.2846C35.171 29.2846 35.1857 29.2846 35.2004 29.2846C35.2151 29.2846 35.2297 29.2846 35.2444 29.2846C35.259 29.2846 35.2736 29.2846 35.2881 29.2846C35.3027 29.2846 35.3172 29.2846 35.3317 29.2846C35.3461 29.2846 35.3606 29.2846 35.375 29.2846C35.3894 29.2846 35.4038 29.2846 35.4181 29.2846C35.4324 29.2846 35.4467 29.2846 35.4609 29.2846C35.4752 29.2846 35.4894 29.2846 35.5036 29.2846C35.5178 29.2846 35.5319 29.2846 35.546 29.2846C35.5601 29.2846 35.5742 29.2846 35.5882 29.2846C35.6022 29.2846 35.6162 29.2846 35.6301 29.2846C35.6441 29.2846 35.658 29.2846 35.6719 29.2846C35.6857 29.2846 35.6996 29.2846 35.7134 29.2846C35.7272 29.2846 35.7409 29.2846 35.7546 29.2846C35.7683 29.2846 35.782 29.2846 35.7956 29.2846C35.8093 29.2846 35.8229 29.2846 35.8364 29.2846C35.85 29.2846 35.8635 29.2846 35.877 29.2846C35.8904 29.2846 35.9039 29.2846 35.9173 29.2846C35.9307 29.2846 35.944 29.2846 35.9573 29.2846C35.9706 29.2846 35.9839 29.2846 35.9971 29.2846C36.0104 29.2846 36.0236 29.2846 36.0367 29.2846C36.0499 29.2846 36.063 29.2846 36.076 29.2846C36.0891 29.2846 36.1021 29.2846 36.1151 29.2846C36.1281 29.2846 36.141 29.2846 36.1539 29.2846C36.1668 29.2846 36.1797 29.2846 36.1925 29.2846C36.2053 29.2846 36.2181 29.2846 36.2308 29.2846C36.2436 29.2846 36.2563 29.2846 36.2689 29.2846C36.2816 29.2846 36.2942 29.2846 36.3067 29.2846C36.3193 29.2846 36.3318 29.2846 36.3443 29.2846C36.3568 29.2846 36.3692 29.2846 36.3816 29.2846C36.394 29.2846 36.4063 29.2846 36.4186 29.2846C36.4309 29.2846 36.4432 29.2846 36.4554 29.2846C36.4676 29.2846 36.4798 29.2846 36.4919 29.2846C36.5041 29.2846 36.5161 29.2846 36.5282 29.2846C36.5402 29.2846 36.5522 29.2846 36.5642 29.2846C36.5761 29.2846 36.588 29.2846 36.5999 29.2846C36.6118 29.2846 36.6236 29.2846 36.6353 29.2846C36.6471 29.2846 36.6588 29.2846 36.6705 29.2846C36.6822 29.2846 36.6939 29.2846 36.7054 29.2846C36.717 29.2846 36.7286 29.2846 36.7401 29.2846C36.7516 29.2846 36.7631 29.2846 36.7745 29.2846C36.7859 29.2846 36.7972 29.2846 36.8086 29.2846C36.8199 29.2846 36.8312 29.2846 36.8424 29.2846C36.8536 29.2846 36.8648 29.2846 36.8759 29.2846C36.8871 29.2846 36.8981 29.2846 36.9092 29.2846C36.9202 29.2846 36.9312 29.2846 36.9422 29.2846C36.9531 29.2846 36.964 29.2846 36.9749 29.2846C36.9857 29.2846 36.9965 29.2846 37.0073 29.2846C37.018 29.2846 37.0287 29.2846 37.0394 29.2846C37.0501 29.2846 37.0607 29.2846 37.0713 29.2846C37.0818 29.2846 37.0923 29.2846 37.1028 29.2846C37.1133 29.2846 37.1237 29.2846 37.1341 29.2846C37.1444 29.2846 37.1548 29.2846 37.165 29.2846C37.1753 29.2846 37.1856 29.2846 37.1957 29.2846C37.2059 29.2846 37.216 29.2846 37.2261 29.2846C37.2362 29.2846 37.2462 29.2846 37.2562 29.2846C37.2662 29.2846 37.2761 29.2846 37.286 29.2846C37.2959 29.2846 37.3057 29.2846 37.3155 29.2846C37.3253 29.2846 37.335 29.2846 37.3447 29.2846C37.3544 29.2846 37.364 29.2846 37.3736 29.2846C37.3832 29.2846 37.3927 29.2846 37.4022 29.2846C37.4117 29.2846 37.4211 29.2846 37.4305 29.2846C37.4399 29.2846 37.4492 29.2846 37.4585 29.2846C37.4678 29.2846 37.477 29.2846 37.4862 29.2846C37.4954 29.2846 37.5045 29.2846 37.5136 29.2846C37.5226 29.2846 37.5317 29.2846 37.5406 29.2846C37.5496 29.2846 37.5585 29.2846 37.5674 29.2846C37.5762 29.2846 37.5851 29.2846 37.5938 29.2846C37.6026 29.2846 37.6113 29.2846 37.62 29.2846C37.6286 29.2846 37.6372 29.2846 37.6458 29.2846C37.6543 29.2846 37.6628 29.2846 37.6713 29.2846C37.6797 29.2846 37.6881 29.2846 37.6964 29.2846C37.7048 29.2846 37.7131 29.2846 37.7213 29.2846C37.7295 29.2846 37.7377 29.2846 37.7458 29.2846C37.754 29.2846 37.762 29.2846 37.7701 29.2846C37.7781 29.2846 37.786 29.2846 37.794 29.2846C37.8019 29.2846 37.8097 29.2846 37.8175 29.2846C37.8253 29.2846 37.8331 29.2846 37.8408 29.2846C37.8485 29.2846 37.8561 29.2846 37.8637 29.2846C37.8713 29.2846 37.8788 29.2846 37.8863 29.2846C37.8937 29.2846 37.9012 29.2846 37.9085 29.2846C37.9159 29.2846 37.9232 29.2846 37.9304 29.2846C37.9377 29.2846 37.9449 29.2846 37.952 29.2846C37.9592 29.2846 37.9663 29.2846 37.9733 29.2846C37.9803 29.2846 37.9873 29.2846 37.9942 29.2846C38.0011 29.2846 38.008 29.2846 38.0148 29.2846C38.0216 29.2846 38.0283 29.2846 38.035 29.2846C38.0417 29.2846 38.0484 29.2846 38.0549 29.2846C38.0615 29.2846 38.068 29.2846 38.0745 29.2846C38.0809 29.2846 38.0873 29.2846 38.0937 29.2846C38.1 29.2846 38.1063 29.2846 38.1126 29.2846C38.1188 29.2846 38.125 29.2846 38.1311 29.2846C38.1372 29.2846 38.1433 29.2846 38.1493 29.2846C38.1553 29.2846 38.1612 29.2846 38.1671 29.2846C38.173 29.2846 38.1788 29.2846 38.1846 29.2846C38.1903 29.2846 38.196 29.2846 38.2017 29.2846C38.2073 29.2846 38.2129 29.2846 38.2184 29.2846C38.224 29.2846 38.2294 29.2846 38.2349 29.2846C38.2403 29.2846 38.2456 29.2846 38.2509 29.2846C38.2562 29.2846 38.2614 29.2846 38.2666 29.2846C38.2718 29.2846 38.2769 29.2846 38.282 29.2846C38.287 29.2846 38.292 29.2846 38.2969 29.2846C38.3019 29.2846 38.3067 29.2846 38.3115 29.2846C38.3164 29.2846 38.3211 29.2846 38.3258 29.2846C38.3305 29.2846 38.3351 29.2846 38.3397 29.2846C38.3443 29.2846 38.3488 29.2846 38.3532 29.2846C38.3577 29.2846 38.362 29.2846 38.3664 29.2846C38.3707 29.2846 38.3749 29.2846 38.3791 29.2846C38.3833 29.2846 38.3875 29.2846 38.3916 29.2846C38.3956 29.2846 38.3996 29.2846 38.4036 29.2846C38.4075 29.2846 38.4114 29.2846 38.4153 29.2846C38.4191 29.2846 38.4229 29.2846 38.4266 29.2846C38.4303 29.2846 38.4339 29.2846 38.4375 29.2846C38.441 29.2846 38.4446 29.2846 38.448 29.2846C38.4515 29.2846 38.4548 29.2846 38.4582 29.2846C38.4615 29.2846 38.4647 29.2846 38.4679 29.2846C38.4711 29.2846 38.4743 29.2846 38.4773 29.2846C38.4804 29.2846 38.4834 29.2846 38.4863 29.2846C38.4893 29.2846 38.4922 29.2846 38.495 29.2846C38.4978 29.2846 38.5005 29.2846 38.5032 29.2846C38.5059 29.2846 38.5085 29.2846 38.5111 29.2846C38.5136 29.2846 38.5161 29.2846 38.5185 29.2846C38.5209 29.2846 38.5233 29.2846 38.5256 29.2846C38.5279 29.2846 38.5301 29.2846 38.5323 29.2846C38.5344 29.2846 38.5365 29.2846 38.5386 29.2846C38.5406 29.2846 38.5425 29.2846 38.5444 29.2846C38.5463 29.2846 38.5482 29.2846 38.5499 29.2846C38.5517 29.2846 38.5534 29.2846 38.555 29.2846C38.5567 29.2846 38.5582 29.2846 38.5597 29.2846C38.5612 29.2846 38.5627 29.2846 38.564 29.2846C38.5654 29.2846 38.5667 29.2846 38.5679 29.2846C38.5691 29.2846 38.5703 29.2846 38.5714 29.2846C38.5725 29.2846 38.5735 29.2846 38.5745 29.2846C38.5755 29.2846 38.5763 29.2846 38.5772 29.2846C38.578 29.2846 38.5787 29.2846 38.5794 29.2846C38.5801 29.2846 38.5807 29.2846 38.5813 29.2846C38.5818 29.2846 38.5823 29.2846 38.5827 29.2846C38.5832 29.2846 38.5835 29.2846 38.5838 29.2846C38.5841 29.2846 38.5843 29.2846 38.5844 29.2846C38.5845 29.2846 38.5846 29.2846 38.5846 28.7846C38.5846 28.2846 38.5845 28.2846 38.5844 28.2846C38.5843 28.2846 38.5841 28.2846 38.5838 28.2846C38.5835 28.2846 38.5832 28.2846 38.5827 28.2846C38.5823 28.2846 38.5818 28.2846 38.5813 28.2846C38.5807 28.2846 38.5801 28.2846 38.5794 28.2846C38.5787 28.2846 38.578 28.2846 38.5772 28.2846C38.5763 28.2846 38.5755 28.2846 38.5745 28.2846C38.5735 28.2846 38.5725 28.2846 38.5714 28.2846C38.5703 28.2846 38.5691 28.2846 38.5679 28.2846C38.5667 28.2846 38.5654 28.2846 38.564 28.2846C38.5627 28.2846 38.5612 28.2846 38.5597 28.2846C38.5582 28.2846 38.5567 28.2846 38.555 28.2846C38.5534 28.2846 38.5517 28.2846 38.5499 28.2846C38.5482 28.2846 38.5463 28.2846 38.5444 28.2846C38.5425 28.2846 38.5406 28.2846 38.5386 28.2846C38.5365 28.2846 38.5344 28.2846 38.5323 28.2846C38.5301 28.2846 38.5279 28.2846 38.5256 28.2846C38.5233 28.2846 38.5209 28.2846 38.5185 28.2846C38.5161 28.2846 38.5136 28.2846 38.5111 28.2846C38.5085 28.2846 38.5059 28.2846 38.5032 28.2846C38.5005 28.2846 38.4978 28.2846 38.495 28.2846C38.4922 28.2846 38.4893 28.2846 38.4863 28.2846C38.4834 28.2846 38.4804 28.2846 38.4773 28.2846C38.4743 28.2846 38.4711 28.2846 38.4679 28.2846C38.4647 28.2846 38.4615 28.2846 38.4582 28.2846C38.4548 28.2846 38.4515 28.2846 38.448 28.2846C38.4446 28.2846 38.441 28.2846 38.4375 28.2846C38.4339 28.2846 38.4303 28.2846 38.4266 28.2846C38.4229 28.2846 38.4191 28.2846 38.4153 28.2846C38.4114 28.2846 38.4075 28.2846 38.4036 28.2846C38.3996 28.2846 38.3956 28.2846 38.3916 28.2846C38.3875 28.2846 38.3833 28.2846 38.3791 28.2846C38.3749 28.2846 38.3707 28.2846 38.3664 28.2846C38.362 28.2846 38.3577 28.2846 38.3532 28.2846C38.3488 28.2846 38.3443 28.2846 38.3397 28.2846C38.3351 28.2846 38.3305 28.2846 38.3258 28.2846C38.3211 28.2846 38.3164 28.2846 38.3115 28.2846C38.3067 28.2846 38.3019 28.2846 38.2969 28.2846C38.292 28.2846 38.287 28.2846 38.282 28.2846C38.2769 28.2846 38.2718 28.2846 38.2666 28.2846C38.2614 28.2846 38.2562 28.2846 38.2509 28.2846C38.2456 28.2846 38.2403 28.2846 38.2349 28.2846C38.2294 28.2846 38.224 28.2846 38.2184 28.2846C38.2129 28.2846 38.2073 28.2846 38.2017 28.2846C38.196 28.2846 38.1903 28.2846 38.1846 28.2846C38.1788 28.2846 38.173 28.2846 38.1671 28.2846C38.1612 28.2846 38.1553 28.2846 38.1493 28.2846C38.1433 28.2846 38.1372 28.2846 38.1311 28.2846C38.125 28.2846 38.1188 28.2846 38.1126 28.2846C38.1063 28.2846 38.1 28.2846 38.0937 28.2846C38.0873 28.2846 38.0809 28.2846 38.0745 28.2846C38.068 28.2846 38.0615 28.2846 38.0549 28.2846C38.0484 28.2846 38.0417 28.2846 38.035 28.2846C38.0283 28.2846 38.0216 28.2846 38.0148 28.2846C38.008 28.2846 38.0011 28.2846 37.9942 28.2846C37.9873 28.2846 37.9803 28.2846 37.9733 28.2846C37.9663 28.2846 37.9592 28.2846 37.952 28.2846C37.9449 28.2846 37.9377 28.2846 37.9304 28.2846C37.9232 28.2846 37.9159 28.2846 37.9085 28.2846C37.9012 28.2846 37.8937 28.2846 37.8863 28.2846C37.8788 28.2846 37.8713 28.2846 37.8637 28.2846C37.8561 28.2846 37.8485 28.2846 37.8408 28.2846C37.8331 28.2846 37.8253 28.2846 37.8175 28.2846C37.8097 28.2846 37.8019 28.2846 37.794 28.2846C37.786 28.2846 37.7781 28.2846 37.7701 28.2846C37.762 28.2846 37.754 28.2846 37.7458 28.2846C37.7377 28.2846 37.7295 28.2846 37.7213 28.2846C37.7131 28.2846 37.7048 28.2846 37.6964 28.2846C37.6881 28.2846 37.6797 28.2846 37.6713 28.2846C37.6628 28.2846 37.6543 28.2846 37.6458 28.2846C37.6372 28.2846 37.6286 28.2846 37.62 28.2846C37.6113 28.2846 37.6026 28.2846 37.5938 28.2846C37.5851 28.2846 37.5762 28.2846 37.5674 28.2846C37.5585 28.2846 37.5496 28.2846 37.5406 28.2846C37.5317 28.2846 37.5226 28.2846 37.5136 28.2846C37.5045 28.2846 37.4954 28.2846 37.4862 28.2846C37.477 28.2846 37.4678 28.2846 37.4585 28.2846C37.4492 28.2846 37.4399 28.2846 37.4305 28.2846C37.4211 28.2846 37.4117 28.2846 37.4022 28.2846C37.3927 28.2846 37.3832 28.2846 37.3736 28.2846C37.364 28.2846 37.3544 28.2846 37.3447 28.2846C37.335 28.2846 37.3253 28.2846 37.3155 28.2846C37.3057 28.2846 37.2959 28.2846 37.286 28.2846C37.2761 28.2846 37.2662 28.2846 37.2562 28.2846C37.2462 28.2846 37.2362 28.2846 37.2261 28.2846C37.216 28.2846 37.2059 28.2846 37.1957 28.2846C37.1856 28.2846 37.1753 28.2846 37.165 28.2846C37.1548 28.2846 37.1444 28.2846 37.1341 28.2846C37.1237 28.2846 37.1133 28.2846 37.1028 28.2846C37.0923 28.2846 37.0818 28.2846 37.0713 28.2846C37.0607 28.2846 37.0501 28.2846 37.0394 28.2846C37.0287 28.2846 37.018 28.2846 37.0073 28.2846C36.9965 28.2846 36.9857 28.2846 36.9749 28.2846C36.964 28.2846 36.9531 28.2846 36.9422 28.2846C36.9312 28.2846 36.9202 28.2846 36.9092 28.2846C36.8981 28.2846 36.8871 28.2846 36.8759 28.2846C36.8648 28.2846 36.8536 28.2846 36.8424 28.2846C36.8312 28.2846 36.8199 28.2846 36.8086 28.2846C36.7972 28.2846 36.7859 28.2846 36.7745 28.2846C36.7631 28.2846 36.7516 28.2846 36.7401 28.2846C36.7286 28.2846 36.717 28.2846 36.7054 28.2846C36.6939 28.2846 36.6822 28.2846 36.6705 28.2846C36.6588 28.2846 36.6471 28.2846 36.6353 28.2846C36.6236 28.2846 36.6118 28.2846 36.5999 28.2846C36.588 28.2846 36.5761 28.2846 36.5642 28.2846C36.5522 28.2846 36.5402 28.2846 36.5282 28.2846C36.5161 28.2846 36.5041 28.2846 36.4919 28.2846C36.4798 28.2846 36.4676 28.2846 36.4554 28.2846C36.4432 28.2846 36.4309 28.2846 36.4186 28.2846C36.4063 28.2846 36.394 28.2846 36.3816 28.2846C36.3692 28.2846 36.3568 28.2846 36.3443 28.2846C36.3318 28.2846 36.3193 28.2846 36.3067 28.2846C36.2942 28.2846 36.2816 28.2846 36.2689 28.2846C36.2563 28.2846 36.2436 28.2846 36.2308 28.2846C36.2181 28.2846 36.2053 28.2846 36.1925 28.2846C36.1797 28.2846 36.1668 28.2846 36.1539 28.2846C36.141 28.2846 36.1281 28.2846 36.1151 28.2846C36.1021 28.2846 36.0891 28.2846 36.076 28.2846C36.063 28.2846 36.0499 28.2846 36.0367 28.2846C36.0236 28.2846 36.0104 28.2846 35.9971 28.2846C35.9839 28.2846 35.9706 28.2846 35.9573 28.2846C35.944 28.2846 35.9307 28.2846 35.9173 28.2846C35.9039 28.2846 35.8904 28.2846 35.877 28.2846C35.8635 28.2846 35.85 28.2846 35.8364 28.2846C35.8229 28.2846 35.8093 28.2846 35.7956 28.2846C35.782 28.2846 35.7683 28.2846 35.7546 28.2846C35.7409 28.2846 35.7272 28.2846 35.7134 28.2846C35.6996 28.2846 35.6857 28.2846 35.6719 28.2846C35.658 28.2846 35.6441 28.2846 35.6301 28.2846C35.6162 28.2846 35.6022 28.2846 35.5882 28.2846C35.5742 28.2846 35.5601 28.2846 35.546 28.2846C35.5319 28.2846 35.5178 28.2846 35.5036 28.2846C35.4894 28.2846 35.4752 28.2846 35.4609 28.2846C35.4467 28.2846 35.4324 28.2846 35.4181 28.2846C35.4038 28.2846 35.3894 28.2846 35.375 28.2846C35.3606 28.2846 35.3461 28.2846 35.3317 28.2846C35.3172 28.2846 35.3027 28.2846 35.2881 28.2846C35.2736 28.2846 35.259 28.2846 35.2444 28.2846C35.2297 28.2846 35.2151 28.2846 35.2004 28.2846C35.1857 28.2846 35.171 28.2846 35.1562 28.2846C35.1414 28.2846 35.1266 28.2846 35.1118 28.2846C35.0969 28.2846 35.0821 28.2846 35.0671 28.2846C35.0522 28.2846 35.0373 28.2846 35.0223 28.2846C35.0073 28.2846 34.9923 28.2846 34.9772 28.2846C34.9622 28.2846 34.9471 28.2846 34.932 28.2846C34.9169 28.2846 34.9017 28.2846 34.8865 28.2846C34.8713 28.2846 34.8561 28.2846 34.8408 28.2846C34.8256 28.2846 34.8103 28.2846 34.7949 28.2846C34.7796 28.2846 34.7642 28.2846 34.7488 28.2846C34.7334 28.2846 34.718 28.2846 34.7025 28.2846C34.6871 28.2846 34.6716 28.2846 34.656 28.2846C34.6405 28.2846 34.6249 28.2846 34.6093 28.2846C34.5937 28.2846 34.5781 28.2846 34.5624 28.2846C34.5468 28.2846 34.5311 28.2846 34.5153 28.2846C34.4996 28.2846 34.4838 28.2846 34.468 28.2846C34.4522 28.2846 34.4364 28.2846 34.4206 28.2846C34.4047 28.2846 34.3888 28.2846 34.3729 28.2846C34.3569 28.2846 34.341 28.2846 34.325 28.2846C34.309 28.2846 34.293 28.2846 34.2769 28.2846C34.2609 28.2846 34.2448 28.2846 34.2287 28.2846C34.2126 28.2846 34.1964 28.2846 34.1802 28.2846C34.1641 28.2846 34.1478 28.2846 34.1316 28.2846C34.1154 28.2846 34.0991 28.2846 34.0828 28.2846C34.0665 28.2846 34.0502 28.2846 34.0338 28.2846C34.0174 28.2846 34.001 28.2846 33.9846 28.2846C33.9682 28.2846 33.9517 28.2846 33.9353 28.2846C33.9188 28.2846 33.9023 28.2846 33.8857 28.2846C33.8692 28.2846 33.8526 28.2846 33.836 28.2846C33.8194 28.2846 33.8028 28.2846 33.7861 28.2846C33.7694 28.2846 33.7528 28.2846 33.736 28.2846C33.7193 28.2846 33.7026 28.2846 33.6858 28.2846C33.669 28.2846 33.6522 28.2846 33.6354 28.2846C33.6185 28.2846 33.6017 28.2846 33.5848 28.2846C33.5679 28.2846 33.551 28.2846 33.534 28.2846C33.5171 28.2846 33.5001 28.2846 33.4831 28.2846C33.4661 28.2846 33.4491 28.2846 33.432 28.2846C33.415 28.2846 33.3979 28.2846 33.3808 28.2846C33.3637 28.2846 33.3465 28.2846 33.3294 28.2846C33.3122 28.2846 33.295 28.2846 33.2778 28.2846C33.2606 28.2846 33.2433 28.2846 33.2261 28.2846C33.2088 28.2846 33.1915 28.2846 33.1742 28.2846C33.1568 28.2846 33.1395 28.2846 33.1221 28.2846C33.1047 28.2846 33.0873 28.2846 33.0699 28.2846C33.0525 28.2846 33.035 28.2846 33.0175 28.2846C33 28.2846 32.9825 28.2846 32.965 28.2846C32.9475 28.2846 32.9299 28.2846 32.9123 28.2846C32.8947 28.2846 32.8771 28.2846 32.8595 28.2846C32.8419 28.2846 32.8242 28.2846 32.8065 28.2846C32.7888 28.2846 32.7711 28.2846 32.7534 28.2846C32.7357 28.2846 32.7179 28.2846 32.7001 28.2846C32.6824 28.2846 32.6646 28.2846 32.6467 28.2846C32.6289 28.2846 32.6111 28.2846 32.5932 28.2846C32.5753 28.2846 32.5574 28.2846 32.5395 28.2846C32.5216 28.2846 32.5036 28.2846 32.4856 28.2846C32.4677 28.2846 32.4497 28.2846 32.4317 28.2846C32.4137 28.2846 32.3956 28.2846 32.3776 28.2846C32.3595 28.2846 32.3414 28.2846 32.3233 28.2846C32.3052 28.2846 32.2871 28.2846 32.2689 28.2846C32.2508 28.2846 32.2326 28.2846 32.2144 28.2846C32.1962 28.2846 32.178 28.2846 32.1597 28.2846C32.1415 28.2846 32.1232 28.2846 32.105 28.2846C32.0867 28.2846 32.0684 28.2846 32.0501 28.2846C32.0317 28.2846 32.0134 28.2846 31.995 28.2846C31.9766 28.2846 31.9583 28.2846 31.9399 28.2846C31.9214 28.2846 31.903 28.2846 31.8846 28.2846C31.8661 28.2846 31.8476 28.2846 31.8291 28.2846C31.8107 28.2846 31.7921 28.2846 31.7736 28.2846C31.7551 28.2846 31.7365 28.2846 31.718 28.2846C31.6994 28.2846 31.6808 28.2846 31.6622 28.2846C31.6436 28.2846 31.6249 28.2846 31.6063 28.2846C31.5876 28.2846 31.569 28.2846 31.5503 28.2846C31.5316 28.2846 31.5129 28.2846 31.4942 28.2846C31.4754 28.2846 31.4567 28.2846 31.4379 28.2846C31.4192 28.2846 31.4004 28.2846 31.3816 28.2846C31.3628 28.2846 31.344 28.2846 31.3251 28.2846C31.3063 28.2846 31.2874 28.2846 31.2685 28.2846C31.2497 28.2846 31.2308 28.2846 31.2119 28.2846C31.193 28.2846 31.174 28.2846 31.1551 28.2846C31.1361 28.2846 31.1172 28.2846 31.0982 28.2846C31.0792 28.2846 31.0602 28.2846 31.0412 28.2846C31.0222 28.2846 31.0032 28.2846 30.9841 28.2846C30.9651 28.2846 30.946 28.2846 30.9269 28.2846C30.9078 28.2846 30.8887 28.2846 30.8696 28.2846C30.8505 28.2846 30.8314 28.2846 30.8122 28.2846C30.7931 28.2846 30.7739 28.2846 30.7547 28.2846C30.7356 28.2846 30.7164 28.2846 30.6972 28.2846C30.678 28.2846 30.6587 28.2846 30.6395 28.2846C30.6202 28.2846 30.601 28.2846 30.5817 28.2846C30.5625 28.2846 30.5432 28.2846 30.5239 28.2846C30.5046 28.2846 30.4852 28.2846 30.4659 28.2846C30.4466 28.2846 30.4272 28.2846 30.4079 28.2846C30.3885 28.2846 30.3691 28.2846 30.3498 28.2846C30.3304 28.2846 30.311 28.2846 30.2916 28.2846C30.2721 28.2846 30.2527 28.2846 30.2333 28.2846C30.2138 28.2846 30.1944 28.2846 30.1749 28.2846C30.1554 28.2846 30.1359 28.2846 30.1164 28.2846C30.0969 28.2846 30.0774 28.2846 30.0579 28.2846C30.0384 28.2846 30.0189 28.2846 29.9993 28.2846C29.9798 28.2846 29.9602 28.2846 29.9406 28.2846C29.921 28.2846 29.9015 28.2846 29.8819 28.2846C29.8623 28.2846 29.8426 28.2846 29.823 28.2846C29.8034 28.2846 29.7838 28.2846 29.7641 28.2846C29.7445 28.2846 29.7248 28.2846 29.7051 28.2846C29.6855 28.2846 29.6658 28.2846 29.6461 28.2846C29.6264 28.2846 29.6067 28.2846 29.587 28.2846C29.5673 28.2846 29.5475 28.2846 29.5278 28.2846C29.5081 28.2846 29.4883 28.2846 29.4686 28.2846C29.4488 28.2846 29.429 28.2846 29.4093 28.2846C29.3895 28.2846 29.3697 28.2846 29.3499 28.2846C29.3301 28.2846 29.3103 28.2846 29.2905 28.2846C29.2706 28.2846 29.2508 28.2846 29.231 28.2846C29.2111 28.2846 29.1913 28.2846 29.1714 28.2846C29.1516 28.2846 29.1317 28.2846 29.1118 28.2846C29.0919 28.2846 29.0721 28.2846 29.0522 28.2846C29.0323 28.2846 29.0124 28.2846 28.9925 28.2846C28.9725 28.2846 28.9526 28.2846 28.9327 28.2846C28.9128 28.2846 28.8928 28.2846 28.8729 28.2846C28.8529 28.2846 28.833 28.2846 28.813 28.2846C28.7931 28.2846 28.7731 28.2846 28.7531 28.2846C28.7331 28.2846 28.7131 28.2846 28.6931 28.2846C28.6732 28.2846 28.6532 28.2846 28.6331 28.2846C28.6131 28.2846 28.5931 28.2846 28.5731 28.2846C28.5531 28.2846 28.5331 28.2846 28.513 28.2846C28.493 28.2846 28.4729 28.2846 28.4529 28.2846C28.4328 28.2846 28.4128 28.2846 28.3927 28.2846C28.3727 28.2846 28.3526 28.2846 28.3325 28.2846C28.3124 28.2846 28.2924 28.2846 28.2723 28.2846C28.2522 28.2846 28.2321 28.2846 28.212 28.2846C28.1919 28.2846 28.1718 28.2846 28.1517 28.2846C28.1316 28.2846 28.1115 28.2846 28.0914 28.2846C28.0712 28.2846 28.0511 28.2846 28.031 28.2846C28.0109 28.2846 27.9907 28.2846 27.9706 28.2846C27.9505 28.2846 27.9303 28.2846 27.9102 28.2846C27.89 28.2846 27.8699 28.2846 27.8497 28.2846C27.8296 28.2846 27.8094 28.2846 27.7892 28.2846C27.7691 28.2846 27.7489 28.2846 27.7287 28.2846C27.7086 28.2846 27.6884 28.2846 27.6682 28.2846C27.648 28.2846 27.6278 28.2846 27.6077 28.2846C27.5875 28.2846 27.5673 28.2846 27.5471 28.2846C27.5269 28.2846 27.5067 28.2846 27.4865 28.2846C27.4663 28.2846 27.4461 28.2846 27.4259 28.2846C27.4057 28.2846 27.3855 28.2846 27.3653 28.2846C27.3451 28.2846 27.3249 28.2846 27.3047 28.2846C27.2845 28.2846 27.2643 28.2846 27.244 28.2846C27.2238 28.2846 27.2036 28.2846 27.1834 28.2846C27.1632 28.2846 27.143 28.2846 27.1227 28.2846C27.1025 28.2846 27.0823 28.2846 27.0621 28.2846C27.0419 28.2846 27.0216 28.2846 27.0014 28.2846C26.9812 28.2846 26.961 28.2846 26.9407 28.2846C26.9205 28.2846 26.9003 28.2846 26.8801 28.2846C26.8598 28.2846 26.8396 28.2846 26.8194 28.2846C26.7991 28.2846 26.7789 28.2846 26.7587 28.2846C26.7385 28.2846 26.7182 28.2846 26.698 28.2846C26.6778 28.2846 26.6576 28.2846 26.6373 28.2846C26.6171 28.2846 26.5969 28.2846 26.5767 28.2846C26.5564 28.2846 26.5362 28.2846 26.516 28.2846C26.4958 28.2846 26.4755 28.2846 26.4553 28.2846C26.4351 28.2846 26.4149 28.2846 26.3947 28.2846C26.3745 28.2846 26.3542 28.2846 26.334 28.2846C26.3138 28.2846 26.2936 28.2846 26.2734 28.2846C26.2532 28.2846 26.233 28.2846 26.2128 28.2846C26.1926 28.2846 26.1724 28.2846 26.1522 28.2846C26.132 28.2846 26.1118 28.2846 26.0916 28.2846C26.0714 28.2846 26.0512 28.2846 26.031 28.2846C26.0108 28.2846 25.9906 28.2846 25.9704 28.2846C25.9503 28.2846 25.9301 28.2846 25.9099 28.2846C25.8897 28.2846 25.8696 28.2846 25.8494 28.2846C25.8292 28.2846 25.8091 28.2846 25.7889 28.2846C25.7687 28.2846 25.7486 28.2846 25.7284 28.2846C25.7083 28.2846 25.6881 28.2846 25.668 28.2846C25.6478 28.2846 25.6277 28.2846 25.6076 28.2846C25.5874 28.2846 25.5673 28.2846 25.5472 28.2846C25.527 28.2846 25.5069 28.2846 25.4868 28.2846C25.4667 28.2846 25.4466 28.2846 25.4265 28.2846C25.4064 28.2846 25.3863 28.2846 25.3662 28.2846C25.3461 28.2846 25.326 28.2846 25.3059 28.2846C25.2858 28.2846 25.2658 28.2846 25.2457 28.2846C25.2256 28.2846 25.2056 28.2846 25.1855 28.2846C25.1654 28.2846 25.1454 28.2846 25.1253 28.2846C25.1053 28.2846 25.0853 28.2846 25.0652 28.2846C25.0452 28.2846 25.0252 28.2846 25.0052 28.2846C24.9851 28.2846 24.9651 28.2846 24.9451 28.2846C24.9251 28.2846 24.9051 28.2846 24.8851 28.2846C24.8652 28.2846 24.8452 28.2846 24.8252 28.2846C24.8052 28.2846 24.7853 28.2846 24.7653 28.2846C24.7453 28.2846 24.7254 28.2846 24.7055 28.2846C24.6855 28.2846 24.6656 28.2846 24.6457 28.2846C24.6257 28.2846 24.6058 28.2846 24.5859 28.2846C24.566 28.2846 24.5461 28.2846 24.5262 28.2846C24.5063 28.2846 24.4865 28.2846 24.4666 28.2846C24.4467 28.2846 24.4269 28.2846 24.407 28.2846C24.3871 28.2846 24.3673 28.2846 24.3475 28.2846C24.3276 28.2846 24.3078 28.2846 24.288 28.2846C24.2682 28.2846 24.2484 28.2846 24.2286 28.2846C24.2088 28.2846 24.189 28.2846 24.1692 28.2846C24.1495 28.2846 24.1297 28.2846 24.11 28.2846C24.0902 28.2846 24.0705 28.2846 24.0507 28.2846C24.031 28.2846 24.0113 28.2846 23.9916 28.2846C23.9719 28.2846 23.9522 28.2846 23.9325 28.2846C23.9128 28.2846 23.8931 28.2846 23.8735 28.2846C23.8538 28.2846 23.8341 28.2846 23.8145 28.2846C23.7949 28.2846 23.7752 28.2846 23.7556 28.2846C23.736 28.2846 23.7164 28.2846 23.6968 28.2846C23.6772 28.2846 23.6576 28.2846 23.6381 28.2846C23.6185 28.2846 23.599 28.2846 23.5794 28.2846C23.5599 28.2846 23.5403 28.2846 23.5208 28.2846C23.5013 28.2846 23.4818 28.2846 23.4623 28.2846C23.4428 28.2846 23.4234 28.2846 23.4039 28.2846C23.3844 28.2846 23.365 28.2846 23.3456 28.2846C23.3261 28.2846 23.3067 28.2846 23.2873 28.2846C23.2679 28.2846 23.2485 28.2846 23.2291 28.2846C23.2097 28.2846 23.1904 28.2846 23.171 28.2846C23.1517 28.2846 23.1323 28.2846 23.113 28.2846C23.0937 28.2846 23.0744 28.2846 23.0551 28.2846C23.0358 28.2846 23.0165 28.2846 22.9973 28.2846C22.978 28.2846 22.9588 28.2846 22.9395 28.2846C22.9203 28.2846 22.9011 28.2846 22.8819 28.2846C22.8627 28.2846 22.8435 28.2846 22.8243 28.2846C22.8052 28.2846 22.786 28.2846 22.7669 28.2846C22.7477 28.2846 22.7286 28.2846 22.7095 28.2846C22.6904 28.2846 22.6713 28.2846 22.6523 28.2846C22.6332 28.2846 22.6141 28.2846 22.5951 28.2846C22.5761 28.2846 22.557 28.2846 22.538 28.2846C22.519 28.2846 22.5 28.2846 22.4811 28.2846C22.4621 28.2846 22.4432 28.2846 22.4242 28.2846C22.4053 28.2846 22.3864 28.2846 22.3675 28.2846C22.3486 28.2846 22.3297 28.2846 22.3108 28.2846C22.292 28.2846 22.2731 28.2846 22.2543 28.2846C22.2355 28.2846 22.2167 28.2846 22.1979 28.2846C22.1791 28.2846 22.1603 28.2846 22.1416 28.2846C22.1228 28.2846 22.1041 28.2846 22.0854 28.2846C22.0666 28.2846 22.0479 28.2846 22.0293 28.2846C22.0106 28.2846 21.9919 28.2846 21.9733 28.2846C21.9547 28.2846 21.936 28.2846 21.9174 28.2846C21.8988 28.2846 21.8803 28.2846 21.8617 28.2846C21.8431 28.2846 21.8246 28.2846 21.8061 28.2846C21.7876 28.2846 21.7691 28.2846 21.7506 28.2846C21.7321 28.2846 21.7137 28.2846 21.6952 28.2846C21.6768 28.2846 21.6584 28.2846 21.64 28.2846C21.6216 28.2846 21.6032 28.2846 21.5848 28.2846C21.5665 28.2846 21.5482 28.2846 21.5298 28.2846C21.5115 28.2846 21.4932 28.2846 21.475 28.2846C21.4567 28.2846 21.4385 28.2846 21.4202 28.2846C21.402 28.2846 21.3838 28.2846 21.3656 28.2846C21.3474 28.2846 21.3293 28.2846 21.3111 28.2846C21.293 28.2846 21.2749 28.2846 21.2568 28.2846C21.2387 28.2846 21.2206 28.2846 21.2026 28.2846C21.1846 28.2846 21.1665 28.2846 21.1485 28.2846C21.1305 28.2846 21.1126 28.2846 21.0946 28.2846C21.0766 28.2846 21.0587 28.2846 21.0408 28.2846C21.0229 28.2846 21.005 28.2846 20.9872 28.2846C20.9693 28.2846 20.9515 28.2846 20.9336 28.2846C20.9158 28.2846 20.898 28.2846 20.8803 28.2846C20.8625 28.2846 20.8448 28.2846 20.8271 28.2846C20.8093 28.2846 20.7917 28.2846 20.774 28.2846C20.7563 28.2846 20.7387 28.2846 20.7211 28.2846C20.7034 28.2846 20.6859 28.2846 20.6683 28.2846C20.6507 28.2846 20.6332 28.2846 20.6157 28.2846C20.5981 28.2846 20.5807 28.2846 20.5632 28.2846C20.5457 28.2846 20.5283 28.2846 20.5109 28.2846C20.4935 28.2846 20.4761 28.2846 20.4587 28.2846C20.4413 28.2846 20.424 28.2846 20.4067 28.2846C20.3894 28.2846 20.3721 28.2846 20.3549 28.2846C20.3376 28.2846 20.3204 28.2846 20.3032 28.2846C20.286 28.2846 20.2688 28.2846 20.2516 28.2846C20.2345 28.2846 20.2174 28.2846 20.2003 28.2846C20.1832 28.2846 20.1661 28.2846 20.1491 28.2846C20.132 28.2846 20.115 28.2846 20.098 28.2846C20.0811 28.2846 20.0641 28.2846 20.0472 28.2846C20.0303 28.2846 20.0133 28.2846 19.9965 28.2846C19.9796 28.2846 19.9628 28.2846 19.9459 28.2846C19.9291 28.2846 19.9123 28.2846 19.8956 28.2846C19.8788 28.2846 19.8621 28.2846 19.8454 28.2846C19.8287 28.2846 19.812 28.2846 19.7954 28.2846C19.7787 28.2846 19.7621 28.2846 19.7456 28.2846C19.729 28.2846 19.7124 28.2846 19.6959 28.2846C19.6794 28.2846 19.6629 28.2846 19.6464 28.2846C19.6299 28.2846 19.6135 28.2846 19.5971 28.2846C19.5807 28.2846 19.5643 28.2846 19.548 28.2846C19.5316 28.2846 19.5153 28.2846 19.4991 28.2846C19.4828 28.2846 19.4665 28.2846 19.4503 28.2846C19.4341 28.2846 19.4179 28.2846 19.4017 28.2846C19.3856 28.2846 19.3694 28.2846 19.3533 28.2846C19.3372 28.2846 19.3212 28.2846 19.3052 28.2846C19.2891 28.2846 19.2731 28.2846 19.2571 28.2846C19.2412 28.2846 19.2252 28.2846 19.2093 28.2846C19.1934 28.2846 19.1776 28.2846 19.1617 28.2846C19.1459 28.2846 19.1301 28.2846 19.1143 28.2846C19.0985 28.2846 19.0828 28.2846 19.0671 28.2846C19.0513 28.2846 19.0357 28.2846 19.02 28.2846C19.0044 28.2846 18.9888 28.2846 18.9732 28.2846C18.9576 28.2846 18.9421 28.2846 18.9265 28.2846C18.911 28.2846 18.8956 28.2846 18.8801 28.2846C18.8647 28.2846 18.8493 28.2846 18.8339 28.2846C18.8185 28.2846 18.8032 28.2846 18.7878 28.2846C18.7725 28.2846 18.7573 28.2846 18.742 28.2846C18.7268 28.2846 18.7116 28.2846 18.6964 28.2846C18.6812 28.2846 18.6661 28.2846 18.651 28.2846C18.6359 28.2846 18.6208 28.2846 18.6058 28.2846C18.5908 28.2846 18.5758 28.2846 18.5608 28.2846C18.5459 28.2846 18.5309 28.2846 18.516 28.2846C18.5011 28.2846 18.4863 28.2846 18.4715 28.2846C18.4567 28.2846 18.4419 28.2846 18.4271 28.2846C18.4124 28.2846 18.3977 28.2846 18.383 28.2846C18.3683 28.2846 18.3537 28.2846 18.3391 28.2846C18.3245 28.2846 18.3099 28.2846 18.2954 28.2846C18.2809 28.2846 18.2664 28.2846 18.2519 28.2846C18.2375 28.2846 18.2231 28.2846 18.2087 28.2846C18.1943 28.2846 18.18 28.2846 18.1657 28.2846C18.1514 28.2846 18.1371 28.2846 18.1229 28.2846C18.1086 28.2846 18.0944 28.2846 18.0803 28.2846C18.0661 28.2846 18.052 28.2846 18.0379 28.2846C18.0239 28.2846 18.0098 28.2846 17.9958 28.2846C17.9818 28.2846 17.9679 28.2846 17.954 28.2846C17.94 28.2846 17.9261 28.2846 17.9123 28.2846C17.8985 28.2846 17.8847 28.2846 17.8709 28.2846C17.8571 28.2846 17.8434 28.2846 17.8297 28.2846C17.816 28.2846 17.8024 28.2846 17.7888 28.2846C17.7752 28.2846 17.7616 28.2846 17.7481 28.2846C17.7345 28.2846 17.721 28.2846 17.7076 28.2846C17.6942 28.2846 17.6807 28.2846 17.6674 28.2846C17.654 28.2846 17.6407 28.2846 17.6274 28.2846C17.6141 28.2846 17.6009 28.2846 17.5877 28.2846C17.5745 28.2846 17.5613 28.2846 17.5482 28.2846C17.535 28.2846 17.522 28.2846 17.5089 28.2846C17.4959 28.2846 17.4829 28.2846 17.4699 28.2846C17.457 28.2846 17.444 28.2846 17.4312 28.2846C17.4183 28.2846 17.4055 28.2846 17.3927 28.2846C17.3799 28.2846 17.3671 28.2846 17.3544 28.2846C17.3417 28.2846 17.3291 28.2846 17.3164 28.2846C17.3038 28.2846 17.2913 28.2846 17.2787 28.2846C17.2662 28.2846 17.2537 28.2846 17.2412 28.2846C17.2288 28.2846 17.2164 28.2846 17.204 28.2846C17.1917 28.2846 17.1793 28.2846 17.1671 28.2846C17.1548 28.2846 17.1426 28.2846 17.1304 28.2846C17.1182 28.2846 17.106 28.2846 17.0939 28.2846C17.0818 28.2846 17.0698 28.2846 17.0578 28.2846C17.0457 28.2846 17.0338 28.2846 17.0219 28.2846C17.0099 28.2846 16.998 28.2846 16.9862 28.2846C16.9744 28.2846 16.9626 28.2846 16.9508 28.2846C16.9391 28.2846 16.9274 28.2846 16.9157 28.2846C16.9041 28.2846 16.8925 28.2846 16.8809 28.2846C16.8694 28.2846 16.8578 28.2846 16.8464 28.2846C16.8349 28.2846 16.8235 28.2846 16.8121 28.2846C16.8007 28.2846 16.7894 28.2846 16.7781 28.2846C16.7668 28.2846 16.7555 28.2846 16.7443 28.2846C16.7331 28.2846 16.722 28.2846 16.7109 28.2846C16.6998 28.2846 16.6887 28.2846 16.6777 28.2846C16.6667 28.2846 16.6557 28.2846 16.6448 28.2846C16.6339 28.2846 16.623 28.2846 16.6122 28.2846C16.6014 28.2846 16.5906 28.2846 16.5799 28.2846C16.5692 28.2846 16.5585 28.2846 16.5479 28.2846C16.5372 28.2846 16.5266 28.2846 16.5161 28.2846C16.5056 28.2846 16.4951 28.2846 16.4846 28.2846C16.4742 28.2846 16.4638 28.2846 16.4535 28.2846C16.4431 28.2846 16.4328 28.2846 16.4226 28.2846C16.4123 28.2846 16.4021 28.2846 16.392 28.2846C16.3818 28.2846 16.3717 28.2846 16.3617 28.2846C16.3516 28.2846 16.3416 28.2846 16.3317 28.2846C16.3217 28.2846 16.3118 28.2846 16.302 28.2846C16.2921 28.2846 16.2823 28.2846 16.2726 28.2846C16.2628 28.2846 16.2531 28.2846 16.2435 28.2846C16.2338 28.2846 16.2242 28.2846 16.2147 28.2846C16.2051 28.2846 16.1956 28.2846 16.1862 28.2846C16.1767 28.2846 16.1673 28.2846 16.158 28.2846C16.1486 28.2846 16.1393 28.2846 16.1301 28.2846C16.1208 28.2846 16.1116 28.2846 16.1025 28.2846C16.0934 28.2846 16.0843 28.2846 16.0752 28.2846C16.0662 28.2846 16.0572 28.2846 16.0483 28.2846C16.0393 28.2846 16.0304 28.2846 16.0216 28.2846C16.0128 28.2846 16.004 28.2846 15.9953 28.2846C15.9865 28.2846 15.9779 28.2846 15.9692 28.2846V29.2846ZM8.04415 6.89061L10.3057 21.7522L11.2943 21.6017L9.03277 6.74016L8.04415 6.89061ZM10.8 21.677C10.8 22.177 10.8001 22.177 10.8002 22.177C10.8004 22.177 10.8006 22.177 10.8009 22.177C10.8013 22.177 10.8017 22.177 10.8021 22.177C10.8026 22.177 10.8031 22.177 10.8038 22.177C10.8044 22.177 10.8051 22.177 10.8059 22.177C10.8067 22.177 10.8075 22.177 10.8085 22.177C10.8094 22.177 10.8104 22.177 10.8115 22.177C10.8126 22.177 10.8138 22.177 10.815 22.177C10.8162 22.177 10.8176 22.177 10.819 22.177C10.8204 22.177 10.8218 22.177 10.8234 22.177C10.8249 22.177 10.8266 22.177 10.8283 22.177C10.83 22.177 10.8317 22.177 10.8336 22.177C10.8355 22.177 10.8374 22.177 10.8394 22.177C10.8414 22.177 10.8435 22.177 10.8456 22.177C10.8478 22.177 10.85 22.177 10.8523 22.177C10.8546 22.177 10.857 22.177 10.8595 22.177C10.8619 22.177 10.8644 22.177 10.867 22.177C10.8696 22.177 10.8723 22.177 10.8751 22.177C10.8778 22.177 10.8806 22.177 10.8835 22.177C10.8864 22.177 10.8894 22.177 10.8925 22.177C10.8955 22.177 10.8986 22.177 10.9018 22.177C10.905 22.177 10.9083 22.177 10.9116 22.177C10.915 22.177 10.9184 22.177 10.9218 22.177C10.9253 22.177 10.9289 22.177 10.9325 22.177C10.9361 22.177 10.9398 22.177 10.9436 22.177C10.9474 22.177 10.9512 22.177 10.9552 22.177C10.9591 22.177 10.9631 22.177 10.9671 22.177C10.9712 22.177 10.9753 22.177 10.9795 22.177C10.9837 22.177 10.988 22.177 10.9923 22.177C10.9967 22.177 11.0011 22.177 11.0056 22.177C11.0101 22.177 11.0146 22.177 11.0192 22.177C11.0239 22.177 11.0286 22.177 11.0333 22.177C11.0381 22.177 11.0429 22.177 11.0479 22.177C11.0528 22.177 11.0577 22.177 11.0628 22.177C11.0678 22.177 11.073 22.177 11.0781 22.177C11.0833 22.177 11.0886 22.177 11.0939 22.177C11.0992 22.177 11.1046 22.177 11.1101 22.177C11.1155 22.177 11.1211 22.177 11.1267 22.177C11.1323 22.177 11.1379 22.177 11.1437 22.177C11.1494 22.177 11.1552 22.177 11.1611 22.177C11.167 22.177 11.1729 22.177 11.1789 22.177C11.1849 22.177 11.191 22.177 11.1971 22.177C11.2033 22.177 11.2095 22.177 11.2158 22.177C11.222 22.177 11.2284 22.177 11.2348 22.177C11.2412 22.177 11.2477 22.177 11.2542 22.177C11.2608 22.177 11.2674 22.177 11.2741 22.177C11.2808 22.177 11.2875 22.177 11.2943 22.177C11.3011 22.177 11.308 22.177 11.3149 22.177C11.3219 22.177 11.3289 22.177 11.336 22.177C11.343 22.177 11.3502 22.177 11.3574 22.177C11.3646 22.177 11.3718 22.177 11.3792 22.177C11.3865 22.177 11.3939 22.177 11.4014 22.177C11.4088 22.177 11.4164 22.177 11.424 22.177C11.4315 22.177 11.4392 22.177 11.4469 22.177C11.4546 22.177 11.4624 22.177 11.4703 22.177C11.4781 22.177 11.486 22.177 11.494 22.177C11.502 22.177 11.51 22.177 11.5181 22.177C11.5262 22.177 11.5344 22.177 11.5426 22.177C11.5509 22.177 11.5592 22.177 11.5675 22.177C11.5759 22.177 11.5843 22.177 11.5928 22.177C11.6012 22.177 11.6098 22.177 11.6184 22.177C11.627 22.177 11.6357 22.177 11.6444 22.177C11.6531 22.177 11.6619 22.177 11.6708 22.177C11.6796 22.177 11.6885 22.177 11.6975 22.177C11.7065 22.177 11.7155 22.177 11.7246 22.177C11.7337 22.177 11.7429 22.177 11.7521 22.177C11.7613 22.177 11.7706 22.177 11.7799 22.177C11.7893 22.177 11.7987 22.177 11.8081 22.177C11.8176 22.177 11.8271 22.177 11.8367 22.177C11.8463 22.177 11.8559 22.177 11.8656 22.177C11.8753 22.177 11.8851 22.177 11.8949 22.177C11.9047 22.177 11.9146 22.177 11.9246 22.177C11.9345 22.177 11.9445 22.177 11.9546 22.177C11.9646 22.177 11.9747 22.177 11.9849 22.177C11.9951 22.177 12.0053 22.177 12.0156 22.177C12.0259 22.177 12.0363 22.177 12.0467 22.177C12.0571 22.177 12.0675 22.177 12.0781 22.177C12.0886 22.177 12.0992 22.177 12.1098 22.177C12.1204 22.177 12.1311 22.177 12.1419 22.177C12.1527 22.177 12.1635 22.177 12.1743 22.177C12.1852 22.177 12.1961 22.177 12.2071 22.177C12.2181 22.177 12.2291 22.177 12.2402 22.177C12.2513 22.177 12.2625 22.177 12.2737 22.177C12.2849 22.177 12.2962 22.177 12.3075 22.177C12.3188 22.177 12.3302 22.177 12.3416 22.177C12.353 22.177 12.3645 22.177 12.3761 22.177C12.3876 22.177 12.3992 22.177 12.4109 22.177C12.4225 22.177 12.4342 22.177 12.446 22.177C12.4578 22.177 12.4696 22.177 12.4814 22.177C12.4933 22.177 12.5052 22.177 12.5172 22.177C12.5292 22.177 12.5412 22.177 12.5533 22.177C12.5654 22.177 12.5776 22.177 12.5898 22.177C12.602 22.177 12.6142 22.177 12.6265 22.177C12.6388 22.177 12.6512 22.177 12.6636 22.177C12.676 22.177 12.6885 22.177 12.701 22.177C12.7135 22.177 12.7261 22.177 12.7387 22.177C12.7513 22.177 12.764 22.177 12.7767 22.177C12.7895 22.177 12.8022 22.177 12.8151 22.177C12.8279 22.177 12.8408 22.177 12.8537 22.177C12.8667 22.177 12.8796 22.177 12.8927 22.177C12.9057 22.177 12.9188 22.177 12.9319 22.177C12.9451 22.177 12.9583 22.177 12.9715 22.177C12.9848 22.177 12.9981 22.177 13.0114 22.177C13.0248 22.177 13.0382 22.177 13.0516 22.177C13.065 22.177 13.0785 22.177 13.0921 22.177C13.1056 22.177 13.1192 22.177 13.1329 22.177C13.1465 22.177 13.1602 22.177 13.174 22.177C13.1877 22.177 13.2015 22.177 13.2154 22.177C13.2292 22.177 13.2431 22.177 13.2571 22.177C13.271 22.177 13.285 22.177 13.299 22.177C13.3131 22.177 13.3272 22.177 13.3413 22.177C13.3554 22.177 13.3696 22.177 13.3839 22.177C13.3981 22.177 13.4124 22.177 13.4267 22.177C13.4411 22.177 13.4554 22.177 13.4699 22.177C13.4843 22.177 13.4988 22.177 13.5133 22.177C13.5278 22.177 13.5424 22.177 13.557 22.177C13.5716 22.177 13.5863 22.177 13.601 22.177C13.6157 22.177 13.6305 22.177 13.6453 22.177C13.6601 22.177 13.6749 22.177 13.6898 22.177C13.7047 22.177 13.7197 22.177 13.7347 22.177C13.7496 22.177 13.7647 22.177 13.7798 22.177C13.7948 22.177 13.81 22.177 13.8251 22.177C13.8403 22.177 13.8555 22.177 13.8708 22.177C13.8861 22.177 13.9014 22.177 13.9167 22.177C13.9321 22.177 13.9475 22.177 13.9629 22.177C13.9784 22.177 13.9939 22.177 14.0094 22.177C14.0249 22.177 14.0405 22.177 14.0561 22.177C14.0717 22.177 14.0874 22.177 14.1031 22.177C14.1188 22.177 14.1346 22.177 14.1504 22.177C14.1662 22.177 14.182 22.177 14.1979 22.177C14.2138 22.177 14.2297 22.177 14.2457 22.177C14.2617 22.177 14.2777 22.177 14.2937 22.177C14.3098 22.177 14.3259 22.177 14.342 22.177C14.3582 22.177 14.3743 22.177 14.3906 22.177C14.4068 22.177 14.4231 22.177 14.4394 22.177C14.4557 22.177 14.472 22.177 14.4884 22.177C14.5048 22.177 14.5213 22.177 14.5377 22.177C14.5542 22.177 14.5707 22.177 14.5873 22.177C14.6039 22.177 14.6205 22.177 14.6371 22.177C14.6537 22.177 14.6704 22.177 14.6871 22.177C14.7039 22.177 14.7206 22.177 14.7374 22.177C14.7542 22.177 14.7711 22.177 14.788 22.177C14.8048 22.177 14.8218 22.177 14.8387 22.177C14.8557 22.177 14.8727 22.177 14.8897 22.177C14.9068 22.177 14.9239 22.177 14.941 22.177C14.9581 22.177 14.9753 22.177 14.9925 22.177C15.0097 22.177 15.0269 22.177 15.0442 22.177C15.0615 22.177 15.0788 22.177 15.0961 22.177C15.1135 22.177 15.1309 22.177 15.1483 22.177C15.1657 22.177 15.1832 22.177 15.2007 22.177C15.2182 22.177 15.2358 22.177 15.2533 22.177C15.2709 22.177 15.2886 22.177 15.3062 22.177C15.3239 22.177 15.3416 22.177 15.3593 22.177C15.377 22.177 15.3948 22.177 15.4126 22.177C15.4304 22.177 15.4482 22.177 15.4661 22.177C15.484 22.177 15.5019 22.177 15.5199 22.177C15.5378 22.177 15.5558 22.177 15.5738 22.177C15.5918 22.177 15.6099 22.177 15.628 22.177C15.6461 22.177 15.6642 22.177 15.6824 22.177C15.7006 22.177 15.7188 22.177 15.737 22.177C15.7552 22.177 15.7735 22.177 15.7918 22.177C15.8101 22.177 15.8285 22.177 15.8468 22.177C15.8652 22.177 15.8836 22.177 15.9021 22.177C15.9205 22.177 15.939 22.177 15.9575 22.177C15.976 22.177 15.9946 22.177 16.0131 22.177C16.0317 22.177 16.0503 22.177 16.069 22.177C16.0876 22.177 16.1063 22.177 16.125 22.177C16.1437 22.177 16.1625 22.177 16.1813 22.177C16.2 22.177 16.2188 22.177 16.2377 22.177C16.2565 22.177 16.2754 22.177 16.2943 22.177C16.3132 22.177 16.3322 22.177 16.3512 22.177C16.3701 22.177 16.3891 22.177 16.4082 22.177C16.4272 22.177 16.4463 22.177 16.4654 22.177C16.4845 22.177 16.5036 22.177 16.5228 22.177C16.542 22.177 16.5612 22.177 16.5804 22.177C16.5996 22.177 16.6189 22.177 16.6382 22.177C16.6574 22.177 16.6768 22.177 16.6961 22.177C16.7155 22.177 16.7348 22.177 16.7543 22.177C16.7737 22.177 16.7931 22.177 16.8126 22.177C16.8321 22.177 16.8516 22.177 16.8711 22.177C16.8906 22.177 16.9102 22.177 16.9298 22.177C16.9494 22.177 16.969 22.177 16.9886 22.177C17.0083 22.177 17.0279 22.177 17.0476 22.177C17.0674 22.177 17.0871 22.177 17.1069 22.177C17.1266 22.177 17.1464 22.177 17.1662 22.177C17.186 22.177 17.2059 22.177 17.2258 22.177C17.2456 22.177 17.2656 22.177 17.2855 22.177C17.3054 22.177 17.3254 22.177 17.3454 22.177C17.3654 22.177 17.3854 22.177 17.4054 22.177C17.4254 22.177 17.4455 22.177 17.4656 22.177C17.4857 22.177 17.5058 22.177 17.526 22.177C17.5461 22.177 17.5663 22.177 17.5865 22.177C17.6067 22.177 17.6269 22.177 17.6472 22.177C17.6674 22.177 17.6877 22.177 17.708 22.177C17.7283 22.177 17.7487 22.177 17.769 22.177C17.7894 22.177 17.8098 22.177 17.8302 22.177C17.8506 22.177 17.871 22.177 17.8915 22.177C17.9119 22.177 17.9324 22.177 17.9529 22.177C17.9734 22.177 17.994 22.177 18.0145 22.177C18.0351 22.177 18.0557 22.177 18.0763 22.177C18.0969 22.177 18.1175 22.177 18.1382 22.177C18.1588 22.177 18.1795 22.177 18.2002 22.177C18.2209 22.177 18.2416 22.177 18.2624 22.177C18.2831 22.177 18.3039 22.177 18.3247 22.177C18.3455 22.177 18.3663 22.177 18.3871 22.177C18.408 22.177 18.4289 22.177 18.4497 22.177C18.4706 22.177 18.4915 22.177 18.5125 22.177C18.5334 22.177 18.5543 22.177 18.5753 22.177C18.5963 22.177 18.6173 22.177 18.6383 22.177C18.6593 22.177 18.6804 22.177 18.7014 22.177C18.7225 22.177 18.7436 22.177 18.7647 22.177C18.7858 22.177 18.8069 22.177 18.8281 22.177C18.8492 22.177 18.8704 22.177 18.8916 22.177C18.9128 22.177 18.934 22.177 18.9552 22.177C18.9764 22.177 18.9977 22.177 19.0189 22.177C19.0402 22.177 19.0615 22.177 19.0828 22.177C19.1041 22.177 19.1254 22.177 19.1468 22.177C19.1681 22.177 19.1895 22.177 19.2109 22.177C19.2323 22.177 19.2537 22.177 19.2751 22.177C19.2965 22.177 19.318 22.177 19.3394 22.177C19.3609 22.177 19.3824 22.177 19.4039 22.177C19.4254 22.177 19.4469 22.177 19.4684 22.177C19.49 22.177 19.5115 22.177 19.5331 22.177C19.5547 22.177 19.5763 22.177 19.5979 22.177C19.6195 22.177 19.6411 22.177 19.6628 22.177C19.6844 22.177 19.7061 22.177 19.7277 22.177C19.7494 22.177 19.7711 22.177 19.7928 22.177C19.8145 22.177 19.8363 22.177 19.858 22.177C19.8797 22.177 19.9015 22.177 19.9233 22.177C19.9451 22.177 19.9669 22.177 19.9887 22.177C20.0105 22.177 20.0323 22.177 20.0541 22.177C20.076 22.177 20.0978 22.177 20.1197 22.177C20.1416 22.177 20.1635 22.177 20.1854 22.177C20.2073 22.177 20.2292 22.177 20.2511 22.177C20.2731 22.177 20.295 22.177 20.317 22.177C20.3389 22.177 20.3609 22.177 20.3829 22.177C20.4049 22.177 20.4269 22.177 20.4489 22.177C20.4709 22.177 20.493 22.177 20.515 22.177C20.5371 22.177 20.5591 22.177 20.5812 22.177C20.6033 22.177 20.6253 22.177 20.6474 22.177C20.6695 22.177 20.6917 22.177 20.7138 22.177C20.7359 22.177 20.7581 22.177 20.7802 22.177C20.8024 22.177 20.8245 22.177 20.8467 22.177C20.8689 22.177 20.8911 22.177 20.9133 22.177C20.9355 22.177 20.9577 22.177 20.9799 22.177C21.0021 22.177 21.0244 22.177 21.0466 22.177C21.0689 22.177 21.0911 22.177 21.1134 22.177C21.1357 22.177 21.158 22.177 21.1803 22.177C21.2026 22.177 21.2249 22.177 21.2472 22.177C21.2695 22.177 21.2918 22.177 21.3142 22.177C21.3365 22.177 21.3588 22.177 21.3812 22.177C21.4036 22.177 21.4259 22.177 21.4483 22.177C21.4707 22.177 21.4931 22.177 21.5155 22.177C21.5379 22.177 21.5603 22.177 21.5827 22.177C21.6051 22.177 21.6275 22.177 21.65 22.177C21.6724 22.177 21.6949 22.177 21.7173 22.177C21.7398 22.177 21.7622 22.177 21.7847 22.177C21.8072 22.177 21.8296 22.177 21.8521 22.177C21.8746 22.177 21.8971 22.177 21.9196 22.177C21.9421 22.177 21.9646 22.177 21.9872 22.177C22.0097 22.177 22.0322 22.177 22.0547 22.177C22.0773 22.177 22.0998 22.177 22.1224 22.177C22.1449 22.177 22.1675 22.177 22.19 22.177C22.2126 22.177 22.2352 22.177 22.2577 22.177C22.2803 22.177 22.3029 22.177 22.3255 22.177C22.3481 22.177 22.3707 22.177 22.3933 22.177C22.4159 22.177 22.4385 22.177 22.4611 22.177C22.4837 22.177 22.5063 22.177 22.529 22.177C22.5516 22.177 22.5742 22.177 22.5969 22.177C22.6195 22.177 22.6421 22.177 22.6648 22.177C22.6874 22.177 22.7101 22.177 22.7327 22.177C22.7554 22.177 22.7781 22.177 22.8007 22.177C22.8234 22.177 22.8461 22.177 22.8687 22.177C22.8914 22.177 22.9141 22.177 22.9368 22.177C22.9595 22.177 22.9822 22.177 23.0048 22.177C23.0275 22.177 23.0502 22.177 23.0729 22.177C23.0956 22.177 23.1183 22.177 23.141 22.177C23.1637 22.177 23.1864 22.177 23.2091 22.177C23.2319 22.177 23.2546 22.177 23.2773 22.177C23.3 22.177 23.3227 22.177 23.3454 22.177C23.3682 22.177 23.3909 22.177 23.4136 22.177C23.4363 22.177 23.4591 22.177 23.4818 22.177C23.5045 22.177 23.5272 22.177 23.55 22.177C23.5727 22.177 23.5954 22.177 23.6182 22.177C23.6409 22.177 23.6636 22.177 23.6864 22.177C23.7091 22.177 23.7318 22.177 23.7546 22.177C23.7773 22.177 23.8001 22.177 23.8228 22.177C23.8455 22.177 23.8683 22.177 23.891 22.177C23.9137 22.177 23.9365 22.177 23.9592 22.177C23.982 22.177 24.0047 22.177 24.0274 22.177C24.0502 22.177 24.0729 22.177 24.0956 22.177C24.1184 22.177 24.1411 22.177 24.1639 22.177C24.1866 22.177 24.2093 22.177 24.2321 22.177C24.2548 22.177 24.2775 22.177 24.3002 22.177C24.323 22.177 24.3457 22.177 24.3684 22.177C24.3912 22.177 24.4139 22.177 24.4366 22.177C24.4593 22.177 24.482 22.177 24.5048 22.177C24.5275 22.177 24.5502 22.177 24.5729 22.177C24.5956 22.177 24.6183 22.177 24.641 22.177C24.6637 22.177 24.6865 22.177 24.7092 22.177C24.7319 22.177 24.7546 22.177 24.7772 22.177C24.7999 22.177 24.8226 22.177 24.8453 22.177C24.868 22.177 24.8907 22.177 24.9134 22.177C24.936 22.177 24.9587 22.177 24.9814 22.177C25.0041 22.177 25.0267 22.177 25.0494 22.177C25.0721 22.177 25.0947 22.177 25.1174 22.177C25.14 22.177 25.1627 22.177 25.1853 22.177C25.208 22.177 25.2306 22.177 25.2532 22.177C25.2759 22.177 25.2985 22.177 25.3211 22.177C25.3437 22.177 25.3663 22.177 25.3889 22.177C25.4116 22.177 25.4342 22.177 25.4568 22.177C25.4794 22.177 25.5019 22.177 25.5245 22.177C25.5471 22.177 25.5697 22.177 25.5923 22.177C25.6148 22.177 25.6374 22.177 25.66 22.177C25.6825 22.177 25.7051 22.177 25.7276 22.177C25.7502 22.177 25.7727 22.177 25.7952 22.177C25.8177 22.177 25.8403 22.177 25.8628 22.177C25.8853 22.177 25.9078 22.177 25.9303 22.177C25.9528 22.177 25.9753 22.177 25.9978 22.177C26.0202 22.177 26.0427 22.177 26.0652 22.177C26.0876 22.177 26.1101 22.177 26.1325 22.177C26.155 22.177 26.1774 22.177 26.1998 22.177C26.2223 22.177 26.2447 22.177 26.2671 22.177C26.2895 22.177 26.3119 22.177 26.3343 22.177C26.3567 22.177 26.3791 22.177 26.4014 22.177C26.4238 22.177 26.4462 22.177 26.4685 22.177C26.4909 22.177 26.5132 22.177 26.5355 22.177C26.5579 22.177 26.5802 22.177 26.6025 22.177C26.6248 22.177 26.6471 22.177 26.6694 22.177C26.6917 22.177 26.7139 22.177 26.7362 22.177C26.7585 22.177 26.7807 22.177 26.8029 22.177C26.8252 22.177 26.8474 22.177 26.8696 22.177C26.8918 22.177 26.914 22.177 26.9362 22.177C26.9584 22.177 26.9806 22.177 27.0028 22.177C27.0249 22.177 27.0471 22.177 27.0692 22.177C27.0914 22.177 27.1135 22.177 27.1356 22.177C27.1577 22.177 27.1798 22.177 27.2019 22.177C27.224 22.177 27.2461 22.177 27.2682 22.177C27.2902 22.177 27.3123 22.177 27.3343 22.177C27.3563 22.177 27.3784 22.177 27.4004 22.177C27.4224 22.177 27.4444 22.177 27.4663 22.177C27.4883 22.177 27.5103 22.177 27.5322 22.177C27.5542 22.177 27.5761 22.177 27.598 22.177C27.62 22.177 27.6419 22.177 27.6638 22.177C27.6856 22.177 27.7075 22.177 27.7294 22.177C27.7512 22.177 27.7731 22.177 27.7949 22.177C27.8167 22.177 27.8385 22.177 27.8603 22.177C27.8821 22.177 27.9039 22.177 27.9257 22.177C27.9474 22.177 27.9692 22.177 27.9909 22.177C28.0126 22.177 28.0344 22.177 28.0561 22.177C28.0777 22.177 28.0994 22.177 28.1211 22.177C28.1428 22.177 28.1644 22.177 28.186 22.177C28.2077 22.177 28.2293 22.177 28.2509 22.177C28.2724 22.177 28.294 22.177 28.3156 22.177C28.3371 22.177 28.3587 22.177 28.3802 22.177C28.4017 22.177 28.4232 22.177 28.4447 22.177C28.4662 22.177 28.4877 22.177 28.5091 22.177C28.5305 22.177 28.552 22.177 28.5734 22.177C28.5948 22.177 28.6162 22.177 28.6375 22.177C28.6589 22.177 28.6803 22.177 28.7016 22.177C28.7229 22.177 28.7442 22.177 28.7655 22.177C28.7868 22.177 28.8081 22.177 28.8294 22.177C28.8506 22.177 28.8718 22.177 28.893 22.177C28.9143 22.177 28.9354 22.177 28.9566 22.177C28.9778 22.177 28.9989 22.177 29.0201 22.177C29.0412 22.177 29.0623 22.177 29.0834 22.177C29.1045 22.177 29.1255 22.177 29.1466 22.177C29.1676 22.177 29.1886 22.177 29.2096 22.177C29.2306 22.177 29.2516 22.177 29.2726 22.177C29.2935 22.177 29.3145 22.177 29.3354 22.177C29.3563 22.177 29.3772 22.177 29.398 22.177C29.4189 22.177 29.4398 22.177 29.4606 22.177C29.4814 22.177 29.5022 22.177 29.523 22.177C29.5437 22.177 29.5645 22.177 29.5852 22.177C29.606 22.177 29.6267 22.177 29.6473 22.177C29.668 22.177 29.6887 22.177 29.7093 22.177C29.7299 22.177 29.7506 22.177 29.7711 22.177C29.7917 22.177 29.8123 22.177 29.8328 22.177C29.8534 22.177 29.8739 22.177 29.8944 22.177C29.9148 22.177 29.9353 22.177 29.9557 22.177C29.9762 22.177 29.9966 22.177 30.017 22.177C30.0374 22.177 30.0577 22.177 30.0781 22.177C30.0984 22.177 30.1187 22.177 30.139 22.177C30.1593 22.177 30.1795 22.177 30.1998 22.177C30.22 22.177 30.2402 22.177 30.2604 22.177C30.2806 22.177 30.3007 22.177 30.3208 22.177C30.341 22.177 30.3611 22.177 30.3811 22.177C30.4012 22.177 30.4212 22.177 30.4413 22.177C30.4613 22.177 30.4813 22.177 30.5012 22.177C30.5212 22.177 30.5411 22.177 30.561 22.177C30.581 22.177 30.6008 22.177 30.6207 22.177C30.6405 22.177 30.6604 22.177 30.6802 22.177C30.6999 22.177 30.7197 22.177 30.7395 22.177C30.7592 22.177 30.7789 22.177 30.7986 22.177C30.8183 22.177 30.8379 22.177 30.8575 22.177C30.8772 22.177 30.8968 22.177 30.9163 22.177C30.9359 22.177 30.9554 22.177 30.9749 22.177C30.9944 22.177 31.0139 22.177 31.0333 22.177C31.0528 22.177 31.0722 22.177 31.0916 22.177C31.111 22.177 31.1303 22.177 31.1496 22.177C31.169 22.177 31.1883 22.177 31.2075 22.177C31.2268 22.177 31.246 22.177 31.2652 22.177C31.2844 22.177 31.3036 22.177 31.3227 22.177C31.3419 22.177 31.361 22.177 31.38 22.177C31.3991 22.177 31.4182 22.177 31.4372 22.177C31.4562 22.177 31.4752 22.177 31.4941 22.177C31.5131 22.177 31.532 22.177 31.5509 22.177C31.5697 22.177 31.5886 22.177 31.6074 22.177C31.6262 22.177 31.645 22.177 31.6638 22.177C31.6825 22.177 31.7012 22.177 31.7199 22.177C31.7386 22.177 31.7573 22.177 31.7759 22.177C31.7945 22.177 31.8131 22.177 31.8316 22.177C31.8502 22.177 31.8687 22.177 31.8872 22.177C31.9057 22.177 31.9241 22.177 31.9425 22.177C31.9609 22.177 31.9793 22.177 31.9977 22.177C32.016 22.177 32.0343 22.177 32.0526 22.177C32.0709 22.177 32.0891 22.177 32.1073 22.177C32.1255 22.177 32.1437 22.177 32.1618 22.177C32.18 22.177 32.1981 22.177 32.2161 22.177C32.2342 22.177 32.2522 22.177 32.2702 22.177C32.2882 22.177 32.3061 22.177 32.3241 22.177C32.342 22.177 32.3599 22.177 32.3777 22.177C32.3956 22.177 32.4134 22.177 32.4311 22.177C32.4489 22.177 32.4667 22.177 32.4844 22.177C32.502 22.177 32.5197 22.177 32.5373 22.177C32.555 22.177 32.5725 22.177 32.5901 22.177C32.6076 22.177 32.6252 22.177 32.6426 22.177C32.6601 22.177 32.6775 22.177 32.6949 22.177C32.7123 22.177 32.7297 22.177 32.747 22.177C32.7643 22.177 32.7816 22.177 32.7989 22.177C32.8161 22.177 32.8333 22.177 32.8505 22.177C32.8676 22.177 32.8848 22.177 32.9019 22.177C32.9189 22.177 32.936 22.177 32.953 22.177C32.97 22.177 32.987 22.177 33.0039 22.177C33.0208 22.177 33.0377 22.177 33.0546 22.177C33.0714 22.177 33.0882 22.177 33.105 22.177C33.1218 22.177 33.1385 22.177 33.1552 22.177C33.1719 22.177 33.1885 22.177 33.2051 22.177C33.2217 22.177 33.2383 22.177 33.2548 22.177C33.2713 22.177 33.2878 22.177 33.3043 22.177C33.3207 22.177 33.3371 22.177 33.3535 22.177C33.3698 22.177 33.3861 22.177 33.4024 22.177C33.4187 22.177 33.4349 22.177 33.4511 22.177C33.4673 22.177 33.4834 22.177 33.4995 22.177C33.5156 22.177 33.5317 22.177 33.5477 22.177C33.5637 22.177 33.5797 22.177 33.5956 22.177C33.6116 22.177 33.6275 22.177 33.6433 22.177C33.6592 22.177 33.675 22.177 33.6907 22.177C33.7065 22.177 33.7222 22.177 33.7379 22.177C33.7535 22.177 33.7692 22.177 33.7847 22.177C33.8003 22.177 33.8159 22.177 33.8314 22.177C33.8469 22.177 33.8623 22.177 33.8777 22.177C33.8931 22.177 33.9085 22.177 33.9238 22.177C33.9391 22.177 33.9544 22.177 33.9696 22.177C33.9848 22.177 34 22.177 34.0151 22.177C34.0303 22.177 34.0454 22.177 34.0604 22.177C34.0754 22.177 34.0904 22.177 34.1054 22.177C34.1203 22.177 34.1352 22.177 34.1501 22.177C34.165 22.177 34.1798 22.177 34.1945 22.177C34.2093 22.177 34.224 22.177 34.2387 22.177C34.2534 22.177 34.268 22.177 34.2826 22.177C34.2971 22.177 34.3117 22.177 34.3261 22.177C34.3406 22.177 34.3551 22.177 34.3694 22.177C34.3838 22.177 34.3982 22.177 34.4125 22.177C34.4267 22.177 34.441 22.177 34.4552 22.177C34.4694 22.177 34.4835 22.177 34.4976 22.177C34.5117 22.177 34.5258 22.177 34.5398 22.177C34.5538 22.177 34.5677 22.177 34.5816 22.177C34.5955 22.177 34.6094 22.177 34.6232 22.177C34.637 22.177 34.6507 22.177 34.6644 22.177C34.6781 22.177 34.6918 22.177 34.7054 22.177C34.719 22.177 34.7325 22.177 34.7461 22.177C34.7596 22.177 34.773 22.177 34.7864 22.177C34.7998 22.177 34.8132 22.177 34.8265 22.177C34.8398 22.177 34.853 22.177 34.8662 22.177C34.8794 22.177 34.8926 22.177 34.9057 22.177C34.9188 22.177 34.9318 22.177 34.9448 22.177C34.9578 22.177 34.9707 22.177 34.9836 22.177C34.9965 22.177 35.0094 22.177 35.0221 22.177C35.0349 22.177 35.0477 22.177 35.0603 22.177C35.073 22.177 35.0857 22.177 35.0982 22.177C35.1108 22.177 35.1233 22.177 35.1358 22.177C35.1483 22.177 35.1607 22.177 35.1731 22.177C35.1854 22.177 35.1977 22.177 35.21 22.177C35.2223 22.177 35.2345 22.177 35.2466 22.177C35.2588 22.177 35.2709 22.177 35.2829 22.177C35.2949 22.177 35.3069 22.177 35.3189 22.177C35.3308 22.177 35.3427 22.177 35.3545 22.177C35.3663 22.177 35.3781 22.177 35.3898 22.177C35.4015 22.177 35.4132 22.177 35.4248 22.177C35.4364 22.177 35.4479 22.177 35.4594 22.177C35.4709 22.177 35.4824 22.177 35.4938 22.177C35.5051 22.177 35.5165 22.177 35.5277 22.177C35.539 22.177 35.5502 22.177 35.5614 22.177C35.5725 22.177 35.5837 22.177 35.5947 22.177C35.6057 22.177 35.6167 22.177 35.6277 22.177C35.6386 22.177 35.6495 22.177 35.6603 22.177C35.6711 22.177 35.6819 22.177 35.6926 22.177C35.7033 22.177 35.7139 22.177 35.7245 22.177C35.7351 22.177 35.7456 22.177 35.7561 22.177C35.7666 22.177 35.777 22.177 35.7874 22.177C35.7977 22.177 35.808 22.177 35.8183 22.177C35.8285 22.177 35.8387 22.177 35.8488 22.177C35.8589 22.177 35.869 22.177 35.879 22.177C35.889 22.177 35.899 22.177 35.9089 22.177C35.9187 22.177 35.9286 22.177 35.9383 22.177C35.9481 22.177 35.9578 22.177 35.9675 22.177C35.9771 22.177 35.9867 22.177 35.9962 22.177C36.0058 22.177 36.0152 22.177 36.0246 22.177C36.0341 22.177 36.0434 22.177 36.0527 22.177C36.062 22.177 36.0712 22.177 36.0804 22.177C36.0895 22.177 36.0986 22.177 36.1077 22.177V21.177C36.0986 21.177 36.0895 21.177 36.0804 21.177C36.0712 21.177 36.062 21.177 36.0527 21.177C36.0434 21.177 36.0341 21.177 36.0246 21.177C36.0152 21.177 36.0058 21.177 35.9962 21.177C35.9867 21.177 35.9771 21.177 35.9675 21.177C35.9578 21.177 35.9481 21.177 35.9383 21.177C35.9286 21.177 35.9187 21.177 35.9089 21.177C35.899 21.177 35.889 21.177 35.879 21.177C35.869 21.177 35.8589 21.177 35.8488 21.177C35.8387 21.177 35.8285 21.177 35.8183 21.177C35.808 21.177 35.7977 21.177 35.7874 21.177C35.777 21.177 35.7666 21.177 35.7561 21.177C35.7456 21.177 35.7351 21.177 35.7245 21.177C35.7139 21.177 35.7033 21.177 35.6926 21.177C35.6819 21.177 35.6711 21.177 35.6603 21.177C35.6495 21.177 35.6386 21.177 35.6277 21.177C35.6167 21.177 35.6057 21.177 35.5947 21.177C35.5837 21.177 35.5725 21.177 35.5614 21.177C35.5502 21.177 35.539 21.177 35.5277 21.177C35.5165 21.177 35.5051 21.177 35.4938 21.177C35.4824 21.177 35.4709 21.177 35.4594 21.177C35.4479 21.177 35.4364 21.177 35.4248 21.177C35.4132 21.177 35.4015 21.177 35.3898 21.177C35.3781 21.177 35.3663 21.177 35.3545 21.177C35.3427 21.177 35.3308 21.177 35.3189 21.177C35.3069 21.177 35.2949 21.177 35.2829 21.177C35.2709 21.177 35.2588 21.177 35.2466 21.177C35.2345 21.177 35.2223 21.177 35.21 21.177C35.1977 21.177 35.1854 21.177 35.1731 21.177C35.1607 21.177 35.1483 21.177 35.1358 21.177C35.1233 21.177 35.1108 21.177 35.0982 21.177C35.0857 21.177 35.073 21.177 35.0603 21.177C35.0477 21.177 35.0349 21.177 35.0221 21.177C35.0094 21.177 34.9965 21.177 34.9836 21.177C34.9707 21.177 34.9578 21.177 34.9448 21.177C34.9318 21.177 34.9188 21.177 34.9057 21.177C34.8926 21.177 34.8794 21.177 34.8662 21.177C34.853 21.177 34.8398 21.177 34.8265 21.177C34.8132 21.177 34.7998 21.177 34.7864 21.177C34.773 21.177 34.7596 21.177 34.7461 21.177C34.7325 21.177 34.719 21.177 34.7054 21.177C34.6918 21.177 34.6781 21.177 34.6644 21.177C34.6507 21.177 34.637 21.177 34.6232 21.177C34.6094 21.177 34.5955 21.177 34.5816 21.177C34.5677 21.177 34.5538 21.177 34.5398 21.177C34.5258 21.177 34.5117 21.177 34.4976 21.177C34.4835 21.177 34.4694 21.177 34.4552 21.177C34.441 21.177 34.4267 21.177 34.4125 21.177C34.3982 21.177 34.3838 21.177 34.3694 21.177C34.3551 21.177 34.3406 21.177 34.3261 21.177C34.3117 21.177 34.2971 21.177 34.2826 21.177C34.268 21.177 34.2534 21.177 34.2387 21.177C34.224 21.177 34.2093 21.177 34.1945 21.177C34.1798 21.177 34.165 21.177 34.1501 21.177C34.1352 21.177 34.1203 21.177 34.1054 21.177C34.0904 21.177 34.0754 21.177 34.0604 21.177C34.0454 21.177 34.0303 21.177 34.0151 21.177C34 21.177 33.9848 21.177 33.9696 21.177C33.9544 21.177 33.9391 21.177 33.9238 21.177C33.9085 21.177 33.8931 21.177 33.8777 21.177C33.8623 21.177 33.8469 21.177 33.8314 21.177C33.8159 21.177 33.8003 21.177 33.7847 21.177C33.7692 21.177 33.7535 21.177 33.7379 21.177C33.7222 21.177 33.7065 21.177 33.6907 21.177C33.675 21.177 33.6592 21.177 33.6433 21.177C33.6275 21.177 33.6116 21.177 33.5956 21.177C33.5797 21.177 33.5637 21.177 33.5477 21.177C33.5317 21.177 33.5156 21.177 33.4995 21.177C33.4834 21.177 33.4673 21.177 33.4511 21.177C33.4349 21.177 33.4187 21.177 33.4024 21.177C33.3861 21.177 33.3698 21.177 33.3535 21.177C33.3371 21.177 33.3207 21.177 33.3043 21.177C33.2878 21.177 33.2713 21.177 33.2548 21.177C33.2383 21.177 33.2217 21.177 33.2051 21.177C33.1885 21.177 33.1719 21.177 33.1552 21.177C33.1385 21.177 33.1218 21.177 33.105 21.177C33.0882 21.177 33.0714 21.177 33.0546 21.177C33.0377 21.177 33.0208 21.177 33.0039 21.177C32.987 21.177 32.97 21.177 32.953 21.177C32.936 21.177 32.9189 21.177 32.9019 21.177C32.8848 21.177 32.8676 21.177 32.8505 21.177C32.8333 21.177 32.8161 21.177 32.7989 21.177C32.7816 21.177 32.7643 21.177 32.747 21.177C32.7297 21.177 32.7123 21.177 32.6949 21.177C32.6775 21.177 32.6601 21.177 32.6426 21.177C32.6252 21.177 32.6076 21.177 32.5901 21.177C32.5725 21.177 32.555 21.177 32.5373 21.177C32.5197 21.177 32.502 21.177 32.4844 21.177C32.4667 21.177 32.4489 21.177 32.4311 21.177C32.4134 21.177 32.3956 21.177 32.3777 21.177C32.3599 21.177 32.342 21.177 32.3241 21.177C32.3061 21.177 32.2882 21.177 32.2702 21.177C32.2522 21.177 32.2342 21.177 32.2161 21.177C32.1981 21.177 32.18 21.177 32.1618 21.177C32.1437 21.177 32.1255 21.177 32.1073 21.177C32.0891 21.177 32.0709 21.177 32.0526 21.177C32.0343 21.177 32.016 21.177 31.9977 21.177C31.9793 21.177 31.9609 21.177 31.9425 21.177C31.9241 21.177 31.9057 21.177 31.8872 21.177C31.8687 21.177 31.8502 21.177 31.8316 21.177C31.8131 21.177 31.7945 21.177 31.7759 21.177C31.7573 21.177 31.7386 21.177 31.7199 21.177C31.7012 21.177 31.6825 21.177 31.6638 21.177C31.645 21.177 31.6262 21.177 31.6074 21.177C31.5886 21.177 31.5697 21.177 31.5509 21.177C31.532 21.177 31.5131 21.177 31.4941 21.177C31.4752 21.177 31.4562 21.177 31.4372 21.177C31.4182 21.177 31.3991 21.177 31.38 21.177C31.361 21.177 31.3419 21.177 31.3227 21.177C31.3036 21.177 31.2844 21.177 31.2652 21.177C31.246 21.177 31.2268 21.177 31.2075 21.177C31.1883 21.177 31.169 21.177 31.1496 21.177C31.1303 21.177 31.111 21.177 31.0916 21.177C31.0722 21.177 31.0528 21.177 31.0333 21.177C31.0139 21.177 30.9944 21.177 30.9749 21.177C30.9554 21.177 30.9359 21.177 30.9163 21.177C30.8968 21.177 30.8772 21.177 30.8575 21.177C30.8379 21.177 30.8183 21.177 30.7986 21.177C30.7789 21.177 30.7592 21.177 30.7395 21.177C30.7197 21.177 30.6999 21.177 30.6802 21.177C30.6604 21.177 30.6405 21.177 30.6207 21.177C30.6008 21.177 30.581 21.177 30.561 21.177C30.5411 21.177 30.5212 21.177 30.5012 21.177C30.4813 21.177 30.4613 21.177 30.4413 21.177C30.4212 21.177 30.4012 21.177 30.3811 21.177C30.3611 21.177 30.341 21.177 30.3208 21.177C30.3007 21.177 30.2806 21.177 30.2604 21.177C30.2402 21.177 30.22 21.177 30.1998 21.177C30.1795 21.177 30.1593 21.177 30.139 21.177C30.1187 21.177 30.0984 21.177 30.0781 21.177C30.0577 21.177 30.0374 21.177 30.017 21.177C29.9966 21.177 29.9762 21.177 29.9557 21.177C29.9353 21.177 29.9148 21.177 29.8944 21.177C29.8739 21.177 29.8534 21.177 29.8328 21.177C29.8123 21.177 29.7917 21.177 29.7711 21.177C29.7506 21.177 29.7299 21.177 29.7093 21.177C29.6887 21.177 29.668 21.177 29.6473 21.177C29.6267 21.177 29.606 21.177 29.5852 21.177C29.5645 21.177 29.5437 21.177 29.523 21.177C29.5022 21.177 29.4814 21.177 29.4606 21.177C29.4398 21.177 29.4189 21.177 29.398 21.177C29.3772 21.177 29.3563 21.177 29.3354 21.177C29.3145 21.177 29.2935 21.177 29.2726 21.177C29.2516 21.177 29.2306 21.177 29.2096 21.177C29.1886 21.177 29.1676 21.177 29.1466 21.177C29.1255 21.177 29.1045 21.177 29.0834 21.177C29.0623 21.177 29.0412 21.177 29.0201 21.177C28.9989 21.177 28.9778 21.177 28.9566 21.177C28.9354 21.177 28.9143 21.177 28.893 21.177C28.8718 21.177 28.8506 21.177 28.8294 21.177C28.8081 21.177 28.7868 21.177 28.7655 21.177C28.7442 21.177 28.7229 21.177 28.7016 21.177C28.6803 21.177 28.6589 21.177 28.6375 21.177C28.6162 21.177 28.5948 21.177 28.5734 21.177C28.552 21.177 28.5305 21.177 28.5091 21.177C28.4877 21.177 28.4662 21.177 28.4447 21.177C28.4232 21.177 28.4017 21.177 28.3802 21.177C28.3587 21.177 28.3371 21.177 28.3156 21.177C28.294 21.177 28.2724 21.177 28.2509 21.177C28.2293 21.177 28.2077 21.177 28.186 21.177C28.1644 21.177 28.1428 21.177 28.1211 21.177C28.0994 21.177 28.0777 21.177 28.0561 21.177C28.0344 21.177 28.0126 21.177 27.9909 21.177C27.9692 21.177 27.9474 21.177 27.9257 21.177C27.9039 21.177 27.8821 21.177 27.8603 21.177C27.8385 21.177 27.8167 21.177 27.7949 21.177C27.7731 21.177 27.7512 21.177 27.7294 21.177C27.7075 21.177 27.6856 21.177 27.6638 21.177C27.6419 21.177 27.62 21.177 27.598 21.177C27.5761 21.177 27.5542 21.177 27.5322 21.177C27.5103 21.177 27.4883 21.177 27.4663 21.177C27.4444 21.177 27.4224 21.177 27.4004 21.177C27.3784 21.177 27.3563 21.177 27.3343 21.177C27.3123 21.177 27.2902 21.177 27.2682 21.177C27.2461 21.177 27.224 21.177 27.2019 21.177C27.1798 21.177 27.1577 21.177 27.1356 21.177C27.1135 21.177 27.0914 21.177 27.0692 21.177C27.0471 21.177 27.0249 21.177 27.0028 21.177C26.9806 21.177 26.9584 21.177 26.9362 21.177C26.914 21.177 26.8918 21.177 26.8696 21.177C26.8474 21.177 26.8252 21.177 26.8029 21.177C26.7807 21.177 26.7585 21.177 26.7362 21.177C26.7139 21.177 26.6917 21.177 26.6694 21.177C26.6471 21.177 26.6248 21.177 26.6025 21.177C26.5802 21.177 26.5579 21.177 26.5355 21.177C26.5132 21.177 26.4909 21.177 26.4685 21.177C26.4462 21.177 26.4238 21.177 26.4014 21.177C26.3791 21.177 26.3567 21.177 26.3343 21.177C26.3119 21.177 26.2895 21.177 26.2671 21.177C26.2447 21.177 26.2223 21.177 26.1998 21.177C26.1774 21.177 26.155 21.177 26.1325 21.177C26.1101 21.177 26.0876 21.177 26.0652 21.177C26.0427 21.177 26.0202 21.177 25.9978 21.177C25.9753 21.177 25.9528 21.177 25.9303 21.177C25.9078 21.177 25.8853 21.177 25.8628 21.177C25.8403 21.177 25.8177 21.177 25.7952 21.177C25.7727 21.177 25.7502 21.177 25.7276 21.177C25.7051 21.177 25.6825 21.177 25.66 21.177C25.6374 21.177 25.6148 21.177 25.5923 21.177C25.5697 21.177 25.5471 21.177 25.5245 21.177C25.5019 21.177 25.4794 21.177 25.4568 21.177C25.4342 21.177 25.4116 21.177 25.3889 21.177C25.3663 21.177 25.3437 21.177 25.3211 21.177C25.2985 21.177 25.2759 21.177 25.2532 21.177C25.2306 21.177 25.208 21.177 25.1853 21.177C25.1627 21.177 25.14 21.177 25.1174 21.177C25.0947 21.177 25.0721 21.177 25.0494 21.177C25.0267 21.177 25.0041 21.177 24.9814 21.177C24.9587 21.177 24.936 21.177 24.9134 21.177C24.8907 21.177 24.868 21.177 24.8453 21.177C24.8226 21.177 24.7999 21.177 24.7772 21.177C24.7546 21.177 24.7319 21.177 24.7092 21.177C24.6865 21.177 24.6637 21.177 24.641 21.177C24.6183 21.177 24.5956 21.177 24.5729 21.177C24.5502 21.177 24.5275 21.177 24.5048 21.177C24.482 21.177 24.4593 21.177 24.4366 21.177C24.4139 21.177 24.3912 21.177 24.3684 21.177C24.3457 21.177 24.323 21.177 24.3002 21.177C24.2775 21.177 24.2548 21.177 24.2321 21.177C24.2093 21.177 24.1866 21.177 24.1639 21.177C24.1411 21.177 24.1184 21.177 24.0956 21.177C24.0729 21.177 24.0502 21.177 24.0274 21.177C24.0047 21.177 23.982 21.177 23.9592 21.177C23.9365 21.177 23.9137 21.177 23.891 21.177C23.8683 21.177 23.8455 21.177 23.8228 21.177C23.8001 21.177 23.7773 21.177 23.7546 21.177C23.7318 21.177 23.7091 21.177 23.6864 21.177C23.6636 21.177 23.6409 21.177 23.6182 21.177C23.5954 21.177 23.5727 21.177 23.55 21.177C23.5272 21.177 23.5045 21.177 23.4818 21.177C23.4591 21.177 23.4363 21.177 23.4136 21.177C23.3909 21.177 23.3682 21.177 23.3454 21.177C23.3227 21.177 23.3 21.177 23.2773 21.177C23.2546 21.177 23.2319 21.177 23.2091 21.177C23.1864 21.177 23.1637 21.177 23.141 21.177C23.1183 21.177 23.0956 21.177 23.0729 21.177C23.0502 21.177 23.0275 21.177 23.0048 21.177C22.9822 21.177 22.9595 21.177 22.9368 21.177C22.9141 21.177 22.8914 21.177 22.8687 21.177C22.8461 21.177 22.8234 21.177 22.8007 21.177C22.7781 21.177 22.7554 21.177 22.7327 21.177C22.7101 21.177 22.6874 21.177 22.6648 21.177C22.6421 21.177 22.6195 21.177 22.5969 21.177C22.5742 21.177 22.5516 21.177 22.529 21.177C22.5063 21.177 22.4837 21.177 22.4611 21.177C22.4385 21.177 22.4159 21.177 22.3933 21.177C22.3707 21.177 22.3481 21.177 22.3255 21.177C22.3029 21.177 22.2803 21.177 22.2577 21.177C22.2352 21.177 22.2126 21.177 22.19 21.177C22.1675 21.177 22.1449 21.177 22.1224 21.177C22.0998 21.177 22.0773 21.177 22.0547 21.177C22.0322 21.177 22.0097 21.177 21.9872 21.177C21.9646 21.177 21.9421 21.177 21.9196 21.177C21.8971 21.177 21.8746 21.177 21.8521 21.177C21.8296 21.177 21.8072 21.177 21.7847 21.177C21.7622 21.177 21.7398 21.177 21.7173 21.177C21.6949 21.177 21.6724 21.177 21.65 21.177C21.6275 21.177 21.6051 21.177 21.5827 21.177C21.5603 21.177 21.5379 21.177 21.5155 21.177C21.4931 21.177 21.4707 21.177 21.4483 21.177C21.4259 21.177 21.4036 21.177 21.3812 21.177C21.3588 21.177 21.3365 21.177 21.3142 21.177C21.2918 21.177 21.2695 21.177 21.2472 21.177C21.2249 21.177 21.2026 21.177 21.1803 21.177C21.158 21.177 21.1357 21.177 21.1134 21.177C21.0911 21.177 21.0689 21.177 21.0466 21.177C21.0244 21.177 21.0021 21.177 20.9799 21.177C20.9577 21.177 20.9355 21.177 20.9133 21.177C20.8911 21.177 20.8689 21.177 20.8467 21.177C20.8245 21.177 20.8024 21.177 20.7802 21.177C20.7581 21.177 20.7359 21.177 20.7138 21.177C20.6917 21.177 20.6695 21.177 20.6474 21.177C20.6253 21.177 20.6033 21.177 20.5812 21.177C20.5591 21.177 20.5371 21.177 20.515 21.177C20.493 21.177 20.4709 21.177 20.4489 21.177C20.4269 21.177 20.4049 21.177 20.3829 21.177C20.3609 21.177 20.3389 21.177 20.317 21.177C20.295 21.177 20.2731 21.177 20.2511 21.177C20.2292 21.177 20.2073 21.177 20.1854 21.177C20.1635 21.177 20.1416 21.177 20.1197 21.177C20.0978 21.177 20.076 21.177 20.0541 21.177C20.0323 21.177 20.0105 21.177 19.9887 21.177C19.9669 21.177 19.9451 21.177 19.9233 21.177C19.9015 21.177 19.8797 21.177 19.858 21.177C19.8363 21.177 19.8145 21.177 19.7928 21.177C19.7711 21.177 19.7494 21.177 19.7277 21.177C19.7061 21.177 19.6844 21.177 19.6628 21.177C19.6411 21.177 19.6195 21.177 19.5979 21.177C19.5763 21.177 19.5547 21.177 19.5331 21.177C19.5115 21.177 19.49 21.177 19.4684 21.177C19.4469 21.177 19.4254 21.177 19.4039 21.177C19.3824 21.177 19.3609 21.177 19.3394 21.177C19.318 21.177 19.2965 21.177 19.2751 21.177C19.2537 21.177 19.2323 21.177 19.2109 21.177C19.1895 21.177 19.1681 21.177 19.1468 21.177C19.1254 21.177 19.1041 21.177 19.0828 21.177C19.0615 21.177 19.0402 21.177 19.0189 21.177C18.9977 21.177 18.9764 21.177 18.9552 21.177C18.934 21.177 18.9128 21.177 18.8916 21.177C18.8704 21.177 18.8492 21.177 18.8281 21.177C18.8069 21.177 18.7858 21.177 18.7647 21.177C18.7436 21.177 18.7225 21.177 18.7014 21.177C18.6804 21.177 18.6593 21.177 18.6383 21.177C18.6173 21.177 18.5963 21.177 18.5753 21.177C18.5543 21.177 18.5334 21.177 18.5125 21.177C18.4915 21.177 18.4706 21.177 18.4497 21.177C18.4289 21.177 18.408 21.177 18.3871 21.177C18.3663 21.177 18.3455 21.177 18.3247 21.177C18.3039 21.177 18.2831 21.177 18.2624 21.177C18.2416 21.177 18.2209 21.177 18.2002 21.177C18.1795 21.177 18.1588 21.177 18.1382 21.177C18.1175 21.177 18.0969 21.177 18.0763 21.177C18.0557 21.177 18.0351 21.177 18.0145 21.177C17.994 21.177 17.9734 21.177 17.9529 21.177C17.9324 21.177 17.9119 21.177 17.8915 21.177C17.871 21.177 17.8506 21.177 17.8302 21.177C17.8098 21.177 17.7894 21.177 17.769 21.177C17.7487 21.177 17.7283 21.177 17.708 21.177C17.6877 21.177 17.6674 21.177 17.6472 21.177C17.6269 21.177 17.6067 21.177 17.5865 21.177C17.5663 21.177 17.5461 21.177 17.526 21.177C17.5058 21.177 17.4857 21.177 17.4656 21.177C17.4455 21.177 17.4254 21.177 17.4054 21.177C17.3854 21.177 17.3654 21.177 17.3454 21.177C17.3254 21.177 17.3054 21.177 17.2855 21.177C17.2656 21.177 17.2456 21.177 17.2258 21.177C17.2059 21.177 17.186 21.177 17.1662 21.177C17.1464 21.177 17.1266 21.177 17.1069 21.177C17.0871 21.177 17.0674 21.177 17.0476 21.177C17.0279 21.177 17.0083 21.177 16.9886 21.177C16.969 21.177 16.9494 21.177 16.9298 21.177C16.9102 21.177 16.8906 21.177 16.8711 21.177C16.8516 21.177 16.8321 21.177 16.8126 21.177C16.7931 21.177 16.7737 21.177 16.7543 21.177C16.7348 21.177 16.7155 21.177 16.6961 21.177C16.6768 21.177 16.6574 21.177 16.6382 21.177C16.6189 21.177 16.5996 21.177 16.5804 21.177C16.5612 21.177 16.542 21.177 16.5228 21.177C16.5036 21.177 16.4845 21.177 16.4654 21.177C16.4463 21.177 16.4272 21.177 16.4082 21.177C16.3891 21.177 16.3701 21.177 16.3512 21.177C16.3322 21.177 16.3132 21.177 16.2943 21.177C16.2754 21.177 16.2565 21.177 16.2377 21.177C16.2188 21.177 16.2 21.177 16.1813 21.177C16.1625 21.177 16.1437 21.177 16.125 21.177C16.1063 21.177 16.0876 21.177 16.069 21.177C16.0503 21.177 16.0317 21.177 16.0131 21.177C15.9946 21.177 15.976 21.177 15.9575 21.177C15.939 21.177 15.9205 21.177 15.9021 21.177C15.8836 21.177 15.8652 21.177 15.8468 21.177C15.8285 21.177 15.8101 21.177 15.7918 21.177C15.7735 21.177 15.7552 21.177 15.737 21.177C15.7188 21.177 15.7006 21.177 15.6824 21.177C15.6642 21.177 15.6461 21.177 15.628 21.177C15.6099 21.177 15.5918 21.177 15.5738 21.177C15.5558 21.177 15.5378 21.177 15.5199 21.177C15.5019 21.177 15.484 21.177 15.4661 21.177C15.4482 21.177 15.4304 21.177 15.4126 21.177C15.3948 21.177 15.377 21.177 15.3593 21.177C15.3416 21.177 15.3239 21.177 15.3062 21.177C15.2886 21.177 15.2709 21.177 15.2533 21.177C15.2358 21.177 15.2182 21.177 15.2007 21.177C15.1832 21.177 15.1657 21.177 15.1483 21.177C15.1309 21.177 15.1135 21.177 15.0961 21.177C15.0788 21.177 15.0615 21.177 15.0442 21.177C15.0269 21.177 15.0097 21.177 14.9925 21.177C14.9753 21.177 14.9581 21.177 14.941 21.177C14.9239 21.177 14.9068 21.177 14.8897 21.177C14.8727 21.177 14.8557 21.177 14.8387 21.177C14.8218 21.177 14.8048 21.177 14.788 21.177C14.7711 21.177 14.7542 21.177 14.7374 21.177C14.7206 21.177 14.7039 21.177 14.6871 21.177C14.6704 21.177 14.6537 21.177 14.6371 21.177C14.6205 21.177 14.6039 21.177 14.5873 21.177C14.5707 21.177 14.5542 21.177 14.5377 21.177C14.5213 21.177 14.5048 21.177 14.4884 21.177C14.472 21.177 14.4557 21.177 14.4394 21.177C14.4231 21.177 14.4068 21.177 14.3906 21.177C14.3743 21.177 14.3582 21.177 14.342 21.177C14.3259 21.177 14.3098 21.177 14.2937 21.177C14.2777 21.177 14.2617 21.177 14.2457 21.177C14.2297 21.177 14.2138 21.177 14.1979 21.177C14.182 21.177 14.1662 21.177 14.1504 21.177C14.1346 21.177 14.1188 21.177 14.1031 21.177C14.0874 21.177 14.0717 21.177 14.0561 21.177C14.0405 21.177 14.0249 21.177 14.0094 21.177C13.9939 21.177 13.9784 21.177 13.9629 21.177C13.9475 21.177 13.9321 21.177 13.9167 21.177C13.9014 21.177 13.8861 21.177 13.8708 21.177C13.8555 21.177 13.8403 21.177 13.8251 21.177C13.81 21.177 13.7948 21.177 13.7798 21.177C13.7647 21.177 13.7496 21.177 13.7347 21.177C13.7197 21.177 13.7047 21.177 13.6898 21.177C13.6749 21.177 13.6601 21.177 13.6453 21.177C13.6305 21.177 13.6157 21.177 13.601 21.177C13.5863 21.177 13.5716 21.177 13.557 21.177C13.5424 21.177 13.5278 21.177 13.5133 21.177C13.4988 21.177 13.4843 21.177 13.4699 21.177C13.4554 21.177 13.4411 21.177 13.4267 21.177C13.4124 21.177 13.3981 21.177 13.3839 21.177C13.3696 21.177 13.3554 21.177 13.3413 21.177C13.3272 21.177 13.3131 21.177 13.299 21.177C13.285 21.177 13.271 21.177 13.2571 21.177C13.2431 21.177 13.2292 21.177 13.2154 21.177C13.2015 21.177 13.1877 21.177 13.174 21.177C13.1602 21.177 13.1465 21.177 13.1329 21.177C13.1192 21.177 13.1056 21.177 13.0921 21.177C13.0785 21.177 13.065 21.177 13.0516 21.177C13.0382 21.177 13.0248 21.177 13.0114 21.177C12.9981 21.177 12.9848 21.177 12.9715 21.177C12.9583 21.177 12.9451 21.177 12.9319 21.177C12.9188 21.177 12.9057 21.177 12.8927 21.177C12.8796 21.177 12.8667 21.177 12.8537 21.177C12.8408 21.177 12.8279 21.177 12.8151 21.177C12.8022 21.177 12.7895 21.177 12.7767 21.177C12.764 21.177 12.7513 21.177 12.7387 21.177C12.7261 21.177 12.7135 21.177 12.701 21.177C12.6885 21.177 12.676 21.177 12.6636 21.177C12.6512 21.177 12.6388 21.177 12.6265 21.177C12.6142 21.177 12.602 21.177 12.5898 21.177C12.5776 21.177 12.5654 21.177 12.5533 21.177C12.5412 21.177 12.5292 21.177 12.5172 21.177C12.5052 21.177 12.4933 21.177 12.4814 21.177C12.4696 21.177 12.4578 21.177 12.446 21.177C12.4342 21.177 12.4225 21.177 12.4109 21.177C12.3992 21.177 12.3876 21.177 12.3761 21.177C12.3645 21.177 12.353 21.177 12.3416 21.177C12.3302 21.177 12.3188 21.177 12.3075 21.177C12.2962 21.177 12.2849 21.177 12.2737 21.177C12.2625 21.177 12.2513 21.177 12.2402 21.177C12.2291 21.177 12.2181 21.177 12.2071 21.177C12.1961 21.177 12.1852 21.177 12.1743 21.177C12.1635 21.177 12.1527 21.177 12.1419 21.177C12.1311 21.177 12.1204 21.177 12.1098 21.177C12.0992 21.177 12.0886 21.177 12.0781 21.177C12.0675 21.177 12.0571 21.177 12.0467 21.177C12.0363 21.177 12.0259 21.177 12.0156 21.177C12.0053 21.177 11.9951 21.177 11.9849 21.177C11.9747 21.177 11.9646 21.177 11.9546 21.177C11.9445 21.177 11.9345 21.177 11.9246 21.177C11.9146 21.177 11.9047 21.177 11.8949 21.177C11.8851 21.177 11.8753 21.177 11.8656 21.177C11.8559 21.177 11.8463 21.177 11.8367 21.177C11.8271 21.177 11.8176 21.177 11.8081 21.177C11.7987 21.177 11.7893 21.177 11.7799 21.177C11.7706 21.177 11.7613 21.177 11.7521 21.177C11.7429 21.177 11.7337 21.177 11.7246 21.177C11.7155 21.177 11.7065 21.177 11.6975 21.177C11.6885 21.177 11.6796 21.177 11.6708 21.177C11.6619 21.177 11.6531 21.177 11.6444 21.177C11.6357 21.177 11.627 21.177 11.6184 21.177C11.6098 21.177 11.6012 21.177 11.5928 21.177C11.5843 21.177 11.5759 21.177 11.5675 21.177C11.5592 21.177 11.5509 21.177 11.5426 21.177C11.5344 21.177 11.5262 21.177 11.5181 21.177C11.51 21.177 11.502 21.177 11.494 21.177C11.486 21.177 11.4781 21.177 11.4703 21.177C11.4624 21.177 11.4546 21.177 11.4469 21.177C11.4392 21.177 11.4315 21.177 11.424 21.177C11.4164 21.177 11.4088 21.177 11.4014 21.177C11.3939 21.177 11.3865 21.177 11.3792 21.177C11.3718 21.177 11.3646 21.177 11.3574 21.177C11.3502 21.177 11.343 21.177 11.336 21.177C11.3289 21.177 11.3219 21.177 11.3149 21.177C11.308 21.177 11.3011 21.177 11.2943 21.177C11.2875 21.177 11.2808 21.177 11.2741 21.177C11.2674 21.177 11.2608 21.177 11.2542 21.177C11.2477 21.177 11.2412 21.177 11.2348 21.177C11.2284 21.177 11.222 21.177 11.2158 21.177C11.2095 21.177 11.2033 21.177 11.1971 21.177C11.191 21.177 11.1849 21.177 11.1789 21.177C11.1729 21.177 11.167 21.177 11.1611 21.177C11.1552 21.177 11.1494 21.177 11.1437 21.177C11.1379 21.177 11.1323 21.177 11.1267 21.177C11.1211 21.177 11.1155 21.177 11.1101 21.177C11.1046 21.177 11.0992 21.177 11.0939 21.177C11.0886 21.177 11.0833 21.177 11.0781 21.177C11.073 21.177 11.0678 21.177 11.0628 21.177C11.0577 21.177 11.0528 21.177 11.0479 21.177C11.0429 21.177 11.0381 21.177 11.0333 21.177C11.0286 21.177 11.0239 21.177 11.0192 21.177C11.0146 21.177 11.0101 21.177 11.0056 21.177C11.0011 21.177 10.9967 21.177 10.9923 21.177C10.988 21.177 10.9837 21.177 10.9795 21.177C10.9753 21.177 10.9712 21.177 10.9671 21.177C10.9631 21.177 10.9591 21.177 10.9552 21.177C10.9512 21.177 10.9474 21.177 10.9436 21.177C10.9398 21.177 10.9361 21.177 10.9325 21.177C10.9289 21.177 10.9253 21.177 10.9218 21.177C10.9184 21.177 10.915 21.177 10.9116 21.177C10.9083 21.177 10.905 21.177 10.9018 21.177C10.8986 21.177 10.8955 21.177 10.8925 21.177C10.8894 21.177 10.8864 21.177 10.8835 21.177C10.8806 21.177 10.8778 21.177 10.8751 21.177C10.8723 21.177 10.8696 21.177 10.867 21.177C10.8644 21.177 10.8619 21.177 10.8595 21.177C10.857 21.177 10.8546 21.177 10.8523 21.177C10.85 21.177 10.8478 21.177 10.8456 21.177C10.8435 21.177 10.8414 21.177 10.8394 21.177C10.8374 21.177 10.8355 21.177 10.8336 21.177C10.8317 21.177 10.83 21.177 10.8283 21.177C10.8266 21.177 10.8249 21.177 10.8234 21.177C10.8218 21.177 10.8204 21.177 10.819 21.177C10.8176 21.177 10.8162 21.177 10.815 21.177C10.8138 21.177 10.8126 21.177 10.8115 21.177C10.8104 21.177 10.8094 21.177 10.8085 21.177C10.8075 21.177 10.8067 21.177 10.8059 21.177C10.8051 21.177 10.8044 21.177 10.8038 21.177C10.8031 21.177 10.8026 21.177 10.8021 21.177C10.8017 21.177 10.8013 21.177 10.8009 21.177C10.8006 21.177 10.8004 21.177 10.8002 21.177C10.8001 21.177 10.8 21.177 10.8 21.677ZM36.1077 22.177C38.5478 22.177 39.8911 21.3465 40.6085 20.4219C40.9589 19.9703 41.1423 19.5183 41.2383 19.1774C41.2863 19.0067 41.3129 18.8624 41.3276 18.7576C41.335 18.7051 41.3394 18.6623 41.3421 18.6308C41.3434 18.615 41.3443 18.602 41.3449 18.592C41.3451 18.587 41.3454 18.5827 41.3455 18.5792C41.3456 18.5775 41.3457 18.5759 41.3457 18.5746C41.3458 18.5739 41.3458 18.5733 41.3458 18.5727C41.3458 18.5724 41.3458 18.572 41.3458 18.5719C41.3458 18.5715 41.3459 18.5711 40.8462 18.5539C40.3465 18.5366 40.3465 18.5363 40.3465 18.536C40.3465 18.5359 40.3465 18.5355 40.3465 18.5353C40.3465 18.5349 40.3465 18.5346 40.3465 18.5343C40.3466 18.5337 40.3466 18.5333 40.3466 18.533C40.3466 18.5326 40.3466 18.5328 40.3466 18.5337C40.3465 18.5355 40.3462 18.54 40.3456 18.5471C40.3444 18.5613 40.342 18.5856 40.3373 18.6186C40.3281 18.6846 40.3101 18.7842 40.2757 18.9063C40.2068 19.151 40.0738 19.4797 39.8184 19.8089C39.3243 20.4458 38.2984 21.177 36.1077 21.177V22.177ZM41.3379 18.6441L43.4918 6.90565L42.5082 6.72517L40.3544 18.4636L41.3379 18.6441ZM43 6.31541L8.53846 6.31538L8.53846 7.31538L43 7.31541V6.31541ZM20.6385 36.3231C20.6385 38.6639 18.7409 40.5616 16.4 40.5616V41.5616C19.2931 41.5616 21.6385 39.2162 21.6385 36.3231H20.6385ZM16.4 40.5616C14.0592 40.5616 12.1616 38.6639 12.1616 36.3231H11.1616C11.1616 39.2162 13.5069 41.5616 16.4 41.5616V40.5616ZM12.1616 36.3231C12.1616 33.9823 14.0592 32.0846 16.4 32.0846V31.0846C13.5069 31.0846 11.1616 33.43 11.1616 36.3231H12.1616ZM16.4 32.0846C18.7409 32.0846 20.6385 33.9823 20.6385 36.3231H21.6385C21.6385 33.43 19.2931 31.0846 16.4 31.0846V32.0846ZM38.3 36.3231C38.3 38.6639 36.4024 40.5616 34.0615 40.5616V41.5616C36.9546 41.5616 39.3 39.2162 39.3 36.3231H38.3ZM34.0615 40.5616C31.7207 40.5616 29.8231 38.6639 29.8231 36.3231H28.8231C28.8231 39.2162 31.1684 41.5616 34.0615 41.5616V40.5616ZM29.8231 36.3231C29.8231 33.9823 31.7207 32.0846 34.0615 32.0846V31.0846C31.1684 31.0846 28.8231 33.43 28.8231 36.3231H29.8231ZM34.0615 32.0846C36.4024 32.0846 38.3 33.9823 38.3 36.3231H39.3C39.3 33.43 36.9546 31.0846 34.0615 31.0846V32.0846Z" fill="#BDBDBD"/>
</svg>
