<svg width="44" height="40" viewBox="0 0 44 40" fill="none" xmlns="http://www.w3.org/2000/svg">
<path d="M43.9273 11.9276C43.285 5.01562 38.2814 0.000827425 32.0194 0.000827425C27.8476 0.000827425 24.0279 2.19588 21.8785 5.71393C19.7486 2.15038 16.0854 0 11.9804 0C5.71932 0 0.714845 5.01479 0.0734198 11.9268C0.0226473 12.2321 -0.18552 13.8389 0.447443 16.4592C1.35966 20.2387 3.46671 23.6765 6.53929 26.3986L21.8683 40L37.4606 26.3994C40.5331 23.6765 42.6402 20.2395 43.5524 16.4592C44.1854 13.8397 43.9772 12.2329 43.9273 11.9276ZM41.9048 16.0803C41.0722 19.5321 39.142 22.677 36.3283 25.1691L21.8785 37.7743L7.67659 25.1724C4.85788 22.6754 2.92852 19.5313 2.09501 16.0794C1.49589 13.5998 1.74214 12.199 1.74299 12.1899L1.75568 12.1063C2.30571 6.05068 6.60529 1.65477 11.9804 1.65477C15.9466 1.65477 19.438 4.03765 21.0949 7.87258L21.8743 9.67877L22.6536 7.87258C24.2843 4.09639 27.9602 1.6556 32.0203 1.6556C37.3946 1.6556 41.695 6.05151 42.256 12.1857C42.2577 12.199 42.504 13.6006 41.9048 16.0803Z" fill="#BDBDBD"/>
</svg>
