<svg width="24" height="24" viewBox="0 0 24 24" fill="none" xmlns="http://www.w3.org/2000/svg">
<path d="M17.16 0H6.84C3.08002 0 0 3.08002 0 6.84V17.16C0 20.92 3.08002 24 6.84 24H17.16C20.92 24 24 20.92 24 17.16V6.84C24 3.08002 20.92 0 17.16 0ZM23.2 17.16C23.2 20.48 20.48 23.2 17.16 23.2H6.84C3.51998 23.2 0.800016 20.48 0.800016 17.16V6.84C0.800016 3.51998 3.52003 0.800016 6.84 0.800016H17.16C20.48 0.800016 23.2 3.52003 23.2 6.84V17.16Z" fill="white"/>
<path d="M12 5.60004C8.47998 5.60004 5.59998 8.48004 5.59998 12C5.59998 15.52 8.47998 18.4 12 18.4C15.5199 18.4 18.3999 15.52 18.3999 12C18.3999 8.48004 15.5199 5.60004 12 5.60004ZM12 17.6C8.91994 17.6 6.39994 15.08 6.39994 12C6.39994 8.92 8.91994 6.40001 12 6.40001C15.08 6.40001 17.6 8.92 17.6 12C17.6 15.08 15.08 17.6 12 17.6Z" fill="white"/>
<path d="M18.4001 4.40001C17.7201 4.40001 17.2001 4.91999 17.2001 5.60001C17.2001 6.28002 17.7201 6.8 18.4001 6.8C19.0801 6.8 19.6001 6.28002 19.6001 5.60001C19.6001 4.91999 19.0801 4.40001 18.4001 4.40001Z" fill="white"/>
</svg>
