<svg width="14" height="15" viewBox="0 0 14 15" fill="none" xmlns="http://www.w3.org/2000/svg">
<path d="M13.9235 14.5205L9.84453 10.1442C10.8849 9.0678 11.5295 7.58383 11.5295 5.94721C11.5295 2.66775 8.94358 0 5.76474 0C2.5859 0 0 2.66775 0 5.94721C0 9.22667 2.5859 11.8944 5.76474 11.8944C7.16008 11.8944 8.44068 11.3798 9.4388 10.526L13.5276 14.9131C13.5815 14.9711 13.6534 15 13.7256 15C13.7942 15 13.8626 14.9737 13.9158 14.921C14.0251 14.8125 14.0284 14.6333 13.9235 14.5205ZM5.76474 11.328C2.88868 11.328 0.549023 8.9143 0.549023 5.94721C0.549023 2.98012 2.88868 0.566401 5.76474 0.566401C8.6408 0.566401 10.9805 2.98012 10.9805 5.94721C10.9805 8.9143 8.64052 11.328 5.76474 11.328Z" fill="black"/>
</svg>
