<svg width="24" height="20" viewBox="0 0 24 20" fill="none" xmlns="http://www.w3.org/2000/svg">
<path d="M23.7596 4.47825C23.7596 4.39127 23.5192 2.47826 22.7579 1.56522C21.8364 0.478278 20.8347 0.347843 20.3139 0.304331H20.1536C16.9082 0.0434613 12.0602 0 11.98 0C11.94 0 7.05181 0.0434613 3.84645 0.391305H3.72625C3.16526 0.434766 2.1636 0.565201 1.28215 1.65214C0.480801 2.56519 0.2404 4.52171 0.2404 4.60868C0.2404 4.60868 0 6.82608 0 9.04347V11.087C0 13.2609 0.2404 15.4783 0.2404 15.5218C0.2404 15.6087 0.480801 17.5217 1.24205 18.4348C2.08346 19.4783 3.08511 19.6087 3.72621 19.6957C3.84641 19.6957 3.92656 19.6957 4.04676 19.7391C5.88981 19.913 11.7396 20 11.98 20C12.02 20 16.9082 20 20.1536 19.6087H20.2738C20.8347 19.5652 21.8364 19.4348 22.7178 18.3478C23.5192 17.4348 23.7596 15.4782 23.7596 15.3913C23.7596 15.3913 24 13.1739 24 10.9565V8.91303C24 6.7391 23.7596 4.52171 23.7596 4.47825ZM23.1986 11.0435C23.1986 13.2174 22.9582 15.3913 22.9582 15.3913C22.8781 15.8695 22.6377 17.2608 22.1168 17.8695C21.4357 18.7391 20.6344 18.826 20.1936 18.8695H20.0734C16.8681 19.1304 12.02 19.1304 11.98 19.1304C11.9399 19.1304 5.92991 19.0434 4.16696 18.8261C4.04676 18.8261 3.92656 18.7826 3.80636 18.7826C3.24541 18.7392 2.4441 18.6087 1.803 17.8261C1.3222 17.2609 1.04175 15.8696 1.00165 15.3913C1.00165 15.3479 0.761253 13.1739 0.761253 11.0435V9.00001C0.761253 6.82608 1.00165 4.65219 1.00165 4.65219C1.0417 4.17392 1.3222 2.78264 1.803 2.17393C2.52421 1.30435 3.28546 1.21738 3.76626 1.17391H3.88646C7.09181 0.913044 11.9399 0.869583 11.9799 0.869583C12.02 0.869583 16.8681 0.913044 20.0734 1.17391H20.2336C20.6744 1.21738 21.4757 1.30435 22.1569 2.17393C22.6377 2.78264 22.8781 4.17392 22.9582 4.65219C22.9983 4.73917 23.1986 6.91305 23.1986 9.00001V11.0435H23.1986Z" fill="white"/>
<path d="M16.9883 10.0435L9.37566 5.21738C9.25546 5.1304 9.09521 5.1304 8.97501 5.21738C8.85481 5.30435 8.77466 5.43478 8.77466 5.60868V15.0435C8.77466 15.2173 8.85481 15.3478 8.97501 15.4348C9.05516 15.4782 9.09521 15.4782 9.17536 15.4782C9.25551 15.4782 9.29556 15.4782 9.37571 15.4348L16.9884 10.8261C17.1086 10.7391 17.1887 10.6087 17.1887 10.4348C17.1887 10.2609 17.1085 10.1304 16.9883 10.0435ZM9.57601 14.3043V6.34778L15.9867 10.4347L9.57601 14.3043Z" fill="white"/>
</svg>
